<svg xmlns="http://www.w3.org/2000/svg" width="20.311" height="20.311" viewBox="0 0 20.311 20.311">
  <g id="Group_16273" data-name="Group 16273" transform="translate(1.5 -0.5)">
    <g id="Group_17083" data-name="Group 17083">
      <g id="Path_14609" data-name="Path 14609" transform="translate(-14.5 -12.5)">
        <path d="M 23.15535545349121 33.01071548461914 C 17.72109603881836 33.01071548461914 13.29999542236328 28.58961486816406 13.29999542236328 23.15535545349121 C 13.29999542236328 17.72109603881836 17.72109603881836 13.29999542236328 23.15535545349121 13.29999542236328 C 28.58961486816406 13.29999542236328 33.01071548461914 17.72109603881836 33.01071548461914 23.15535545349121 C 33.01071548461914 28.58961486816406 28.58961486816406 33.01071548461914 23.15535545349121 33.01071548461914 Z M 23.15535545349121 15.74660587310791 C 19.07015609741211 15.74660587310791 15.74660587310791 19.07015609741211 15.74660587310791 23.15535545349121 C 15.74660587310791 27.24055480957031 19.07015609741211 30.56410598754883 23.15535545349121 30.56410598754883 C 27.24055480957031 30.56410598754883 30.56410598754883 27.24055480957031 30.56410598754883 23.15535545349121 C 30.56410598754883 19.07015609741211 27.24055480957031 15.74660587310791 23.15535545349121 15.74660587310791 Z" stroke="none"/>
        <path d="M 23.15535545349121 32.71071624755859 C 28.42419624328613 32.71071624755859 32.71071624755859 28.42419624328613 32.71071624755859 23.15535545349121 C 32.71071624755859 17.88651466369629 28.42419624328613 13.59999561309814 23.15535545349121 13.59999561309814 C 17.88651466369629 13.59999561309814 13.59999561309814 17.88651466369629 13.59999561309814 23.15535545349121 C 13.59999561309814 28.42419624328613 17.88651466369629 32.71071624755859 23.15535545349121 32.71071624755859 M 23.15535545349121 15.44660568237305 C 27.40597534179688 15.44660568237305 30.86410522460938 18.90473556518555 30.86410522460938 23.15535545349121 C 30.86410522460938 27.40597534179688 27.40597534179688 30.86410522460938 23.15535545349121 30.86410522460938 C 18.90473556518555 30.86410522460938 15.44660568237305 27.40597534179688 15.44660568237305 23.15535545349121 C 15.44660568237305 18.90473556518555 18.90473556518555 15.44660568237305 23.15535545349121 15.44660568237305 M 23.15535545349121 33.31071472167969 C 17.55569458007812 33.31071472167969 12.99999523162842 28.7550163269043 12.99999523162842 23.15535545349121 C 12.99999523162842 17.55569458007812 17.55569458007812 12.99999523162842 23.15535545349121 12.99999523162842 C 28.7550163269043 12.99999523162842 33.31071472167969 17.55569458007812 33.31071472167969 23.15535545349121 C 33.31071472167969 28.7550163269043 28.7550163269043 33.31071472167969 23.15535545349121 33.31071472167969 Z M 23.15535545349121 16.04660606384277 C 19.23538589477539 16.04660606384277 16.04660606384277 19.23538589477539 16.04660606384277 23.15535545349121 C 16.04660606384277 27.07532501220703 19.23538589477539 30.26410484313965 23.15535545349121 30.26410484313965 C 27.07532501220703 30.26410484313965 30.26410484313965 27.07532501220703 30.26410484313965 23.15535545349121 C 30.26410484313965 19.23538589477539 27.07532501220703 16.04660606384277 23.15535545349121 16.04660606384277 Z" stroke="none" fill="#f6f6f6"/>
      </g>
      <g id="Group_17082" data-name="Group 17082" transform="translate(0 -1)">
        <circle id="Ellipse_107" data-name="Ellipse 107" cx="1" cy="1" r="1" transform="translate(8 7)"/>
        <rect id="Rectangle_3448" data-name="Rectangle 3448" width="2" height="6" rx="1" transform="translate(8 10)" fill="#0e3958"/>
      </g>
    </g>
  </g>
</svg>
