<svg xmlns="http://www.w3.org/2000/svg" width="51.824" height="60.906" viewBox="0 0 51.824 60.906">
  <path id="Union_12" data-name="Union 12" d="M23.269,60.164c.211-.139.422-.279.636-.415.846.44,1.91,1.051,2.839.459a.925.925,0,0,0-.025-1.562c-.843-.493-1.888-.518-2.712-1.048a1.436,1.436,0,0,1,0-2.257,3.571,3.571,0,0,1,3.738-.115c-.093.133-.282.4-.378.53-.741-.288-1.584-.874-2.374-.415a.81.81,0,0,0-.35,1.305c.973.849,2.526.614,3.431,1.581a1.687,1.687,0,0,1-.536,2.173,3.167,3.167,0,0,1-1.767.506A5.009,5.009,0,0,1,23.269,60.164Zm14.938-.592c-.685-1.51-.552-3.962,1.265-4.594,1.395-.521,3.648-.353,3.983,1.423-.2-.016-.586-.04-.781-.053-.536-.611-1.051-1.525-1.984-1.482a1.857,1.857,0,0,0-1.42,1.454,5.464,5.464,0,0,0,.208,3.487,1.85,1.85,0,0,0,2.068.769,14.039,14.039,0,0,0,1.674-1.33c.291.731-.418,1.339-1.082,1.463a5.065,5.065,0,0,1-1.289.169A2.858,2.858,0,0,1,38.206,59.572Zm-5.542-4.706c.363.015.725.031,1.091.053.868,1.94,1.714,3.89,2.492,5.871-.357-.037-.71-.068-1.063-.1-.313-.651-.608-1.305-.884-1.968a12.388,12.388,0,0,0-2.833-.05,10.279,10.279,0,0,1-1.379,2.2A35.158,35.158,0,0,1,32.664,54.866ZM31.62,58.332q1.255.033,2.517.025a19.591,19.591,0,0,0-1.215-2.781A16.83,16.83,0,0,0,31.62,58.332ZM3.954,60.657c-.747-1.906-1.454-3.831-2.027-5.8.378.031.757.065,1.138.1a44.4,44.4,0,0,0,1.8,4.947c.642-1.522.983-3.159,1.711-4.644l.58-.505a42.838,42.838,0,0,1-2.2,6.017C4.62,60.734,4.286,60.694,3.954,60.657Zm16.057.031c-.552-.837-1.094-1.677-1.646-2.511l-1.032.049c-.065.834-.118,1.668-.186,2.5l-1.02.022c-.13-1.956-.093-3.915-.031-5.868.384.018.787,0,1.195-.011a4.993,4.993,0,0,1,3.287.616c.914.949-.105,2.071-.884,2.681.481.859.97,1.717,1.432,2.591C20.752,60.734,20.383,60.709,20.011,60.688Zm-2.805-5.5a25.609,25.609,0,0,0,.127,2.759c1.041.028,2.607-.4,2.346-1.754-.12-.869-.906-1.056-1.671-1.056A7.585,7.585,0,0,0,17.205,55.189Zm-6.468,5.538c-.345,0-.689-.009-1.033-.008-.1-1.944-.093-3.89-.022-5.831a15.014,15.014,0,0,1,4.1.2c-.989.109-1.981.118-2.969.155-.012.747-.016,1.5-.012,2.244q1.088.037,2.182.059c0,.087.009.263.009.35-.725.013-1.454.028-2.179.056Q10.8,59.129,10.8,60.31a6.427,6.427,0,0,0,1.019.008,3.141,3.141,0,0,1,1.938.318,17.746,17.746,0,0,1-2.067.1C11.374,60.735,11.056,60.731,10.737,60.727Zm35.225-.011c-.13-1.941-.1-3.884-.04-5.828a15.137,15.137,0,0,1,4.135.2c-.976.109-1.959.118-2.939.158q-.009,1.121,0,2.244,1.07.033,2.142.05c0,.09,0,.269-.006.359-.71.013-1.423.025-2.133.05q-.014,1.181-.009,2.362a6.194,6.194,0,0,0,1.006.01,3.013,3.013,0,0,1,1.914.328,18.79,18.79,0,0,1-2.015.09C47.332,60.735,46.646,60.716,45.962,60.716Zm-27.368-10.1A25.869,25.869,0,0,1,.417,30.394a25.367,25.367,0,0,1,3.27-17.718A25.944,25.944,0,0,1,37.032,2.446a26.132,26.132,0,0,1,12.21,12.281,27.81,27.81,0,0,1,2.582,11.057,26.912,26.912,0,0,1-3.6,12.861A26.543,26.543,0,0,1,35.289,49.839a26.337,26.337,0,0,1-9.532,1.779A25.833,25.833,0,0,1,18.594,50.614ZM14.2,3.345A25.6,25.6,0,0,0,3.235,14.4,25.021,25.021,0,0,0,1.27,32,25.491,25.491,0,0,0,19.76,50.415,25.4,25.4,0,0,0,51.012,22.684a13.215,13.215,0,0,1-1.172,1.224c-1,.468-1.522-.806-2.377-1.06-.016.983.056,1.965.121,2.945.961.068,1.925.1,2.889.149a26.032,26.032,0,0,1-.552,4.774q-.87-.144-1.736-.3c.043-.769.1-1.537.13-2.306-.2-.016-.586-.05-.781-.068-.263,1.088-.471,2.189-.645,3.3.887.27,1.77.555,2.632.9a21.606,21.606,0,0,1-1.739,4.4c-.514-.232-1.029-.468-1.541-.7.22-.713.456-1.42.685-2.129-.294-.074-.586-.149-.877-.22-.446.967-.887,1.938-1.283,2.923q1.209.642,2.39,1.336a19.862,19.862,0,0,1-2.833,3.912c-.434-.363-.862-.725-1.293-1.091.434-.676.883-1.339,1.308-2.018l-.831-.248a23.832,23.832,0,0,0-2,2.331c.614.725,1.265,1.42,1.922,2.1a23.573,23.573,0,0,1-3.707,3.09c-.319-.483-.635-.964-.949-1.448.567-.524,1.132-1.048,1.683-1.59l-.471-.657a12.8,12.8,0,0,0-2.6,2.052c.462.75.927,1.506,1.37,2.272-1.311.759-2.6,1.733-4.157,1.86-.152-.5-.295-1-.434-1.5.629-.338,1.262-.67,1.9-1-.1-.186-.307-.555-.409-.741a18.354,18.354,0,0,0-2.7,1.1c.245.9.524,1.795.79,2.69a18.752,18.752,0,0,1-4.147.983c-.034-.58-.065-1.156-.087-1.736.6-.164,1.206-.332,1.807-.508-.09-.285-.183-.57-.273-.856-.908.13-1.81.279-2.709.456.009.958.068,1.912.143,2.867a21.233,21.233,0,0,1-4.185.049c.009-.564.025-1.131.037-1.7l2.043-.149c0-.239.006-.722.009-.961-.933-.04-1.869-.053-2.8-.025-.1.927-.183,1.857-.316,2.784a22.333,22.333,0,0,1-4.228-.849c.177-.57.353-1.138.536-1.7.682.139,1.367.279,2.055.394.043-.214.13-.639.174-.852a20.2,20.2,0,0,0-2.846-.781c-.31.877-.614,1.754-.97,2.613a25,25,0,0,1-3.955-1.661c.217-.558.443-1.113.67-1.668.7.276,1.395.57,2.1.856.112-.282.223-.564.335-.843q-1.228-.688-2.5-1.289c-.53.759-1.041,1.528-1.571,2.288A17.119,17.119,0,0,1,9.54,44.076q.539-.651,1.085-1.3c.543.344,1.076.707,1.6,1.072.161-.112.483-.338.645-.453a9.96,9.96,0,0,0-2.244-2.114c-.713.552-1.258,1.5-2.117,1.758A18.761,18.761,0,0,1,5.6,39.678c.48-.363.97-.719,1.457-1.076q.684.842,1.38,1.677c.18-.13.545-.388.725-.518a25.854,25.854,0,0,0-1.925-2.675c-.812.456-1.621.914-2.449,1.342A21.425,21.425,0,0,1,2.8,34.144c.564-.189,1.125-.375,1.692-.558.282.639.571,1.277.859,1.913.223-.028.666-.084.89-.115a21.949,21.949,0,0,0-1.187-3.243c-.908.236-1.813.477-2.722.691a25.181,25.181,0,0,1-.958-5.093c.592-.031,1.181-.062,1.773-.09.13.8.251,1.6.384,2.4H4.45c-.044-1.426-.226-2.843-.357-4.259-.921-.04-1.844-.056-2.765-.071.245-2.21-.422-4.6.682-6.652.682-1.3,1.243-2.65,1.845-3.989a2.541,2.541,0,0,0,2.517-.115c-.561-.44-1.141-.849-1.717-1.265a15.218,15.218,0,0,1,2.808-3.84q.637.534,1.271,1.079c-.418.639-.84,1.277-1.228,1.938a7.971,7.971,0,0,0,2.709-1.981A21.3,21.3,0,0,0,8.34,8.773a19.714,19.714,0,0,1,3.71-3.094c.31.487.626.97.942,1.454-.592.514-1.184,1.029-1.761,1.559.2.22.406.437.614.657.853-.6,1.686-1.221,2.489-1.888A13.878,13.878,0,0,1,13.083,4.9a22.211,22.211,0,0,1,3.7-1.761c.539.257.583,1.02.868,1.51A18.4,18.4,0,0,0,15.823,5.67l.26.827c.908-.357,1.8-.753,2.675-1.178-.245-.9-.5-1.8-.71-2.706a26.292,26.292,0,0,1,3.992-.989c.1.571.2,1.144.3,1.714q-.888.265-1.773.527c-.009.208-.025.623-.034.831.942-.071,1.881-.183,2.818-.323.049-1,.031-1.987-.009-2.982,1.361-.071,2.725-.1,4.086-.056-.019.592-.044,1.187-.068,1.782q-.985.06-1.965.1c-.009.242-.022.728-.031.97a14.725,14.725,0,0,0,1.925,0c.927-.61,1.066-1.739,1.265-2.737a20.516,20.516,0,0,1,4.048.809c-.115.571-.235,1.138-.357,1.7-.747-.105-1.494-.22-2.241-.31-.006.189-.025.567-.031.756a7.668,7.668,0,0,0,2.886.754c.251-.865.515-1.724.806-2.573a18.262,18.262,0,0,1,4.064,1.782c-.26.515-.518,1.026-.781,1.534-.747-.192-2.213-1.385-2.34,0a13.186,13.186,0,0,0,2.548,1.305c.481-.747.945-1.5,1.429-2.251a15.146,15.146,0,0,1,3.651,2.56c-.4.425-.8.852-1.206,1.274-.558-.369-1.11-.738-1.664-1.1-.121.177-.357.536-.478.716a16.614,16.614,0,0,0,2.288,1.9c.648-.639,1.3-1.28,1.968-1.9A19.782,19.782,0,0,1,46,11.811c-.36.437-.719.871-1.069,1.317a2.283,2.283,0,0,0,2,.149,27.091,27.091,0,0,1,2.133,4.045,21.357,21.357,0,0,0,1.559,3.621,19.214,19.214,0,0,0-2.5-7.26A25.274,25.274,0,0,0,32.549,1.339,25.005,25.005,0,0,0,14.2,3.345ZM26.867,47.027v1.8l-2.033.018c-.016.341-.031.682-.044,1.023a20.708,20.708,0,0,0,3.221-.136q-.135-1.39-.248-2.778c1.181-.266,2.374-.49,3.571-.685q.269.855.542,1.714c-.719.353-2.331.279-1.835,1.463a13.388,13.388,0,0,0,3.1-.762c-.242-.9-.505-1.785-.741-2.678l1.144-.716a10.014,10.014,0,0,0-3.2.251,19.087,19.087,0,0,1-7.318.329,27.784,27.784,0,0,0-3.835-.583c-.062.084-.18.251-.239.335.053.074.164.226.22.3,1.029.313,2.083.545,3.137.766q-.13.855-.27,1.711c-.722-.046-1.441-.109-2.16-.174-.09.267-.18.536-.267.806a12.6,12.6,0,0,0,3.286.586c.127-.874.229-1.748.313-2.625Q24,46.94,24.8,46.941C25.488,46.941,26.178,46.971,26.867,47.027ZM14.654,47.1a14.171,14.171,0,0,0,3.01,1.323,15.687,15.687,0,0,0,.942-2.753c-.208-.05-.626-.152-.834-.2-.257.545-.518,1.088-.787,1.627-.688-.282-1.373-.564-2.068-.824C14.828,46.544,14.741,46.819,14.654,47.1Zm21.329-2.654c.183.574.378,1.147.574,1.72-.611.384-2.359.784-1.469,1.72a10.63,10.63,0,0,0,2.979-1.361,12.164,12.164,0,0,0-1.445-2.579C36.461,44.07,36.142,44.318,35.984,44.445ZM10.25,44.12a15.774,15.774,0,0,0,2.567,1.934c.7-.859,1.333-1.77,2.046-2.616-.741-1.37-2.179-2.092-3.224-3.193a20.313,20.313,0,0,1-6.051-12.9,3.8,3.8,0,0,1,.248-2.328c.276,1.534.22,3.109.542,4.637a20.145,20.145,0,0,0,7.87,12.241c.192-1.119.357-2.244.468-3.373-.313-.353-.632-.694-.924-1.06-.834-.846-.2-2.129-.6-3.134a24.672,24.672,0,0,0-1.531-2.186c-.325-.753-.133-1.7-.747-2.319-.608-.741-1.169-1.522-1.8-2.238-.8-.412-1.888-.468-2.368-1.333a27.085,27.085,0,0,0-1.782-2.777c-.477.71-1.289.6-2.024.5-.022-.614-.037-1.231-.062-1.841-1.429.3-.979,2.027-1.088,3.1.914.05,1.829.081,2.747.115.074,1.674.3,3.332.446,5q-.86.154-1.717.3c-.161-.781-.282-1.575-.5-2.34l-.855-.186a18.85,18.85,0,0,0,.713,4.1c.911-.192,1.813-.431,2.719-.651.524,1.314,1.106,2.61,1.513,3.968-.515.248-1.026.493-1.541.738C4.943,35.6,4.6,34.9,4.255,34.2c-.292.084-.58.17-.868.261a12.463,12.463,0,0,0,1.6,3.3c.834-.406,1.655-.831,2.486-1.24.778,1.079,1.553,2.161,2.306,3.255q-.637.59-1.28,1.178c-.536-.57-1.057-1.15-1.59-1.717-.164.13-.49.394-.654.524A17.405,17.405,0,0,0,8.5,42.551c.741-.589,1.435-1.231,2.114-1.888,1,.778,1.956,1.609,2.883,2.47-.332.465-.666.927-1,1.392-.623-.387-1.243-.775-1.872-1.15Zm10.239.812a21.667,21.667,0,0,0,10.57.043c-.614-.462-1.237-.911-1.857-1.361a10.568,10.568,0,0,1-3.778.67c-.831.074-1.469-.552-2.145-.924A10.105,10.105,0,0,0,20.488,44.932Zm20.7-1.916q-.879.73-1.764,1.454c.112.276.227.555.344.831a11.2,11.2,0,0,0,2.976-2.461c-.62-.691-1.249-1.373-1.838-2.092q1.306-1.576,2.588-3.171.735.474,1.472.964c-.434.691-.871,1.382-1.283,2.089.177.105.524.313.7.418a15.354,15.354,0,0,0,2.108-2.929c-.75-.558-1.531-1.067-2.331-1.547.577-1.2,1.153-2.4,1.677-3.621.571.18,1.135.369,1.7.564-.22.713-.456,1.423-.679,2.139l.694.381a14.894,14.894,0,0,0,1.4-3.493c-.871-.326-1.745-.629-2.622-.933.251-1.327.527-2.65.722-3.989q.925-.028,1.857.016c-.074.818-.164,1.637-.254,2.455.236-.006.7-.016.939-.019a30.917,30.917,0,0,0,.366-3.7c-.911-.043-1.823-.065-2.734-.084a12.96,12.96,0,0,0-.682-4.374,1.925,1.925,0,0,0-.465,1.82A20.2,20.2,0,0,1,38.151,41.86a3.831,3.831,0,0,0-1.575,2.061,20.925,20.925,0,0,0,3.431-2.312Q40.6,42.306,41.185,43.016Zm-25.57-4.572a6.737,6.737,0,0,0-.831,3.85,3.376,3.376,0,0,0,3.252,2.768,5.844,5.844,0,0,0,3.022-1.039,8.152,8.152,0,0,0,2.4-1.615c-1.919.415-3.4,2.1-5.468,1.95,2.421-.883,4.532-2.65,7.192-2.765-.388-.254-.75-.651-1.252-.567-2.34.189-4.073,2.052-6.289,2.632a1.182,1.182,0,0,1-1.575-.719c-.335-1.451.09-2.969-.248-4.423-.167-1.141-1.361-1.627-2.238-2.148A8.482,8.482,0,0,0,15.615,38.444Zm16.7,6.224a3.475,3.475,0,0,0,3.648-.952c1.088-1.5.871-3.425,1.122-5.155a15.952,15.952,0,0,0,1.075-3.23c-1.24.493-1.621,1.863-1.953,3.022-.394,1.553.034,3.484-1.265,4.684-1.15.279-2.173-.477-3.156-.942-1.383-.772-3.038-1.457-4.591-.738a6.7,6.7,0,0,1,3.534,1.472c1.181,1.008,2.787.98,4.172,1.51-2.465.775-4.362-1.2-6.373-2.2A6.912,6.912,0,0,0,32.32,44.668Zm-8.428-2.139c.149,1.147,1.268,1.323,2.232,1.293-.307-.487-.623-.961-.939-1.438C24.75,42.43,24.319,42.477,23.892,42.529Zm4.755.673a8.423,8.423,0,0,0-3.2-1.934C25.472,42.78,27.283,44.324,28.647,43.2Zm-12.157-.009a3.825,3.825,0,0,0,2.945-.862C18.377,41.3,17.4,40.2,16.446,39.082A21.945,21.945,0,0,0,16.489,43.193Zm18.757-4.706q-1.567,1.567-3.115,3.156c.818.48,1.8,1.128,2.778.719a3.876,3.876,0,0,0,.617-1.956c.164-1.414-.3-2.988.7-4.185-.093-.127-.285-.378-.381-.505a2.971,2.971,0,0,1,.36-1.9c-.245-.223-.49-.45-.731-.67a24.565,24.565,0,0,1-2.461,3.9c-1.051,1.342-2.371,2.433-3.528,3.676.611-.093,1.215-.208,1.82-.35q-.1.507-.177,1.023a7.537,7.537,0,0,0,3.289-3c.2-.013.6-.04.8-.056Zm-15.115,3.53c-.388-.579-.8-1.14-1.181-1.727a19.58,19.58,0,0,1,1.894,1.243l.967-.3c-.97-1.1-2.126-2.024-2.985-3.214a21.692,21.692,0,0,1-1.807-3.351c-1.069,1.041.214,2.39.357,3.568-.567-.735-1.017-1.55-1.553-2.306A9.273,9.273,0,0,0,20.132,42.018Zm19.091-10.43a21.184,21.184,0,0,0-.645,4.126,5.206,5.206,0,0,1-.679,2.179c-.617,1.187-.412,2.57-.434,3.856a19.662,19.662,0,0,0,8.162-18.128c-.006-.735-.787-1.023-1.252-1.448a10.6,10.6,0,0,1-2,3.45,11.54,11.54,0,0,1-.827,3.521,3.463,3.463,0,0,0-.105,2.371h-.111C40.63,31.516,39.924,31.543,39.223,31.587ZM21.576,40.2a3.2,3.2,0,0,0,2.046.48c1.491.034,3.029.391,4.479-.124a6.943,6.943,0,0,0,3.276-2.362,18.355,18.355,0,0,0,2.61-3.264c.285-.449-.2-.886-.332-1.293a17.488,17.488,0,0,1-2.892,3.335c-1.135.924-2.012,2.281-3.493,2.675a5.846,5.846,0,0,1-3.6.025c-1.234-.8-2.195-1.95-3.4-2.8-1.243-.887-1.875-2.309-2.827-3.45A11.1,11.1,0,0,0,21.576,40.2ZM16.607,26.686a17.1,17.1,0,0,0,2.123,7.694c.837,1.6,2.52,2.442,3.748,3.7.555.456,1.026,1.187,1.813,1.218a5.069,5.069,0,0,0,3.893-.871c1.094-.976,2.216-1.922,3.27-2.939,2.746-2.858,3.431-7.058,3.149-10.871a5.382,5.382,0,0,0-3.565-3.822c-2.272-.775-4.715-.673-7.055-1.082-1.224.561-1.8,1.888-2.889,2.629a7.389,7.389,0,0,0-1.26,1.289,3.584,3.584,0,0,1,.659-.136c1.125-.121,1.99.729,2.8,1.376q-.177.753-.363,1.506c.279,1.02-1.166,1.1-1.866,1.2a4.055,4.055,0,0,1-3.441-1.464.641.641,0,0,1-.206-.593C17.059,25.858,16.531,26.139,16.607,26.686ZM14.8,36.4a8.01,8.01,0,0,0,2.365-3.025A3.433,3.433,0,0,0,14.8,36.4Zm-1.231-3.6c-.394.958.211,1.863.722,2.629a18.478,18.478,0,0,1,2.715-2.96,5.16,5.16,0,0,0-.242-2.009C15.587,31.032,14.121,31.488,13.573,32.8Zm21.494-1.1c.794,1.169,1.764,2.213,2.452,3.459.415-.728,1.169-1.578.648-2.449-.889-1.463-2.467-2.424-3.038-4.107C34.945,29.61,34.363,30.763,35.066,31.7Zm-.886,2.235a1.283,1.283,0,0,0,.242-2.263A4.5,4.5,0,0,0,34.18,33.934ZM12.791,31.708c-.366.347-.121.862-.105,1.289a15.776,15.776,0,0,1,1.178-1.463c.732-.666,1.714-.961,2.471-1.593a3.127,3.127,0,0,0-.071-1.243C15.122,29.721,13.842,30.592,12.791,31.708Zm25.852.388a3.937,3.937,0,0,0-2.092-2.629A4.508,4.508,0,0,0,38.644,32.1Zm-26.6-1.414c-.071.332-.143.666-.208,1,1.342-1.228,3.453-2.009,3.819-3.977A12.46,12.46,0,0,1,12.047,30.682Zm27.864.514a26.013,26.013,0,0,0-.759-3.465,4.45,4.45,0,0,1-2.585.412C37.314,29.454,38.321,30.911,39.911,31.2Zm-1.336-4.315c.5.44,1.166.812,1.327,1.51.22.778.338,1.581.542,2.365.48-1.432,1.3-2.812,1.317-4.352.053-.976-.893-1.64-1.758-1.789a1.291,1.291,0,0,0-.184-.014C38.763,24.6,38.828,26.1,38.575,26.882ZM10.764,23.959c.105,1.209-.8,2.167-1.02,3.3.477,1.271,1.485,2.694,2.976,2.734.065-.155.2-.465.264-.62a5.186,5.186,0,0,1-1.367-.933.8.8,0,0,1,.53-1.274c.676.369.945,1.159,1.389,1.755,1.057-.276,1.283-1.411,1.584-2.309-.415-.422-1.122-.762-1.057-1.451-.021-.9.908-1.4,1.166-2.2a13.608,13.608,0,0,0,.087-1.469c-.272,0-.549,0-.829,0-1.828,0-3.768,0-5.246-1.186C9.664,21.55,10.643,22.607,10.764,23.959Zm24.879,1.534c-.071,1.147.084,2.294.118,3.438.273-.548.536-1.1.809-1.652l1.3.574c-.006-.825.691-1.95-.214-2.5a1.789,1.789,0,0,0-1.091-.4A.971.971,0,0,0,35.643,25.493ZM19.127,27.012a5.6,5.6,0,0,0,2.66.115c.074-.338.149-.676.22-1.011a5.819,5.819,0,0,0-1.446-.223C19.821,25.893,19.159,26.139,19.127,27.012Zm-3.409.188a.6.6,0,0,1,.173-.349q.4.042.405.251,0-.209-.405-.251A.6.6,0,0,0,15.719,27.2ZM8.17,17.61c-.558.607-1.764.945-1.636,1.94.325,1.445,2.681,1.46,2.56,3.137.2,1.441-1.085,2.251-2.26,2.654.292.858,1.15,1.7,2.12,1.358a3.139,3.139,0,0,0,1.153-3.509c-.465-1.15-1.624-2.17-1.1-3.518a15.618,15.618,0,0,1,2.216,1.175c-.353-.446-.722-.877-1.091-1.308.239-.784.5-1.562.738-2.347A5.407,5.407,0,0,0,7.3,17.2,9.75,9.75,0,0,0,2.1,21.81C3.7,21.3,4.341,19.594,5.65,18.68A4.259,4.259,0,0,1,7.95,17.6,1.942,1.942,0,0,1,8.17,17.61Zm9.839,8.18.065-.034a.734.734,0,0,1-.1.011Zm-3.3-1.423a6.766,6.766,0,0,0-.307,1.166,3.647,3.647,0,0,0,1.293.1c.527-.394.36-1.134.48-1.7A3.459,3.459,0,0,0,14.713,24.368Zm2.027,1.265c1.091-.5,1-1.727,1.023-2.737C17.094,23.642,16.322,24.563,16.74,25.632Zm5.111-.8c-.694.2-1.4.36-2.1.527.7-.167,1.407-.332,2.1-.527l.285-.077a6.753,6.753,0,0,0-1.4-.7,1.372,1.372,0,0,0-.971.306l.131.125a7.979,7.979,0,0,1-.992.865,5.52,5.52,0,0,1,2.277-.579A3.684,3.684,0,0,1,21.852,24.829Zm16.373.257a5.809,5.809,0,0,1,1.556-1c.942.192,1.823.623,2.778.784a10.072,10.072,0,0,1-1.714-1.711,9.106,9.106,0,0,0-1.228-2.486c-.118.7-.223,1.4-.35,2.1a16.177,16.177,0,0,1-1.193-1.5,5.628,5.628,0,0,1-3.227.425c.084,1.048.233,2.086.418,3.122a3.333,3.333,0,0,1,1.163-.209A3.756,3.756,0,0,1,38.225,25.087Zm-19.2-3.261a3.443,3.443,0,0,0-.775,2.836,19.114,19.114,0,0,1,3.577-3.428C20.882,21.29,19.8,21.166,19.025,21.826Zm-13.487,1.9c.657.719,1.916,1.131,2.629.251a1.665,1.665,0,0,0-.642-2.672A3.532,3.532,0,0,1,5.538,23.729Zm39.178-3.283c-1.265.666-2.381,1.693-3.89,1.785.254.787.716,1.733,1.671,1.767,1.051-.217,1.141-1.42,1.454-2.241.6.146,1.2.338,1.792.536.285-.706.115-1.882-.754-1.882A1.16,1.16,0,0,0,44.716,20.446Zm-27.746.846a4.129,4.129,0,0,0-1.128,2.232c1.349-.3,2.17-1.522,3.016-2.511a5.355,5.355,0,0,1-.54,0c-.1,0-.2-.006-.3-.006A1.614,1.614,0,0,0,16.97,21.293Zm-13.431.515c.254.335.508.673.772,1,.012-.6.019-1.193.028-1.789Q3.934,21.414,3.539,21.807Zm1.407-.632a1.419,1.419,0,0,0,.483,1.5c.66.434,1.054-.415,1.5-.769-.443-.059-.887-.121-1.327-.177.316-.338.645-.666.973-.995l-.36-.546C5.767,20.474,5.166,20.642,4.946,21.175ZM43.96,16.457c-.1.285-.2.574-.3.862,1.55,1.206,2.046,3.208,3.366,4.6.7.778,1.838.744,2.8.862-.514-1.082-1.646-1.634-2.368-2.548C46,18.515,45.262,16.07,43.086,15.072,43.358,15.543,43.653,16,43.96,16.457ZM24.509,19.3c2.278.508,4.684.363,6.894,1.187a14.261,14.261,0,0,1,3.032,1.956A3.284,3.284,0,0,0,32,19.256a14.6,14.6,0,0,1-6.283-2.567C25.3,17.551,24.887,18.419,24.509,19.3Zm16.915-5.369c1.073.676,2.424.927,3.292,1.909,1.866,1.947,2.728,4.879,5.381,6.014a6.75,6.75,0,0,0-2.492-4.873C45.98,15.446,44,13.929,41.663,13.929Q41.544,13.929,41.424,13.934ZM38.749,19.9c1.091.449,1.928,1.336,3.029,1.767a8.362,8.362,0,0,1,.425-3.624c-1.082-1.1-2.632-.821-4.014-.741A5.154,5.154,0,0,1,34.4,15.6c-.62-.638-1.553-.694-2.322-1.066a4.713,4.713,0,0,0-2.328-.293,6.658,6.658,0,0,1-1.711-.076,13.493,13.493,0,0,1-1.615-.762c.167,1.082.285,2.343,1.218,3.066.979.673,2.226.3,3.32.239a7.811,7.811,0,0,1,3.131.5c-.192-.614-.381-1.228-.518-1.85,1.023,1.249,1.234,2.917,1.748,4.4a3.625,3.625,0,0,0,1.465-.045,5.69,5.69,0,0,1,.927-.1A1.755,1.755,0,0,1,38.749,19.9Zm-3.837.437c.332,1.46,2.117,1.1,2.932.279.388.146.775.292,1.169.431a6.341,6.341,0,0,0-.921-.989C37.029,20.1,35.972,20.282,34.911,20.341Zm8.307-1.968c-1.3.273-1.122,1.85-.973,2.843a14.116,14.116,0,0,0,2.824-1.6c-.345-.551-.751-1.331-1.436-1.331A1.087,1.087,0,0,0,43.219,18.373Zm-26.091-.332A5.606,5.606,0,0,0,14.654,19.3c-.822.592-1.761.989-2.632,1.494a4.339,4.339,0,0,0,2.653.084c1.175-.384,2.117-1.346,3.376-1.488.741-.112,1.488-.183,2.235-.282a5.256,5.256,0,0,0-2.762-1.1A2.679,2.679,0,0,0,17.128,18.041ZM16.6,20.4c1.321.056,2.635.189,3.946.357a3.641,3.641,0,0,0,2.873-1.231C21.148,19.734,18.74,19.473,16.6,20.4Zm12.17-2.96c.422,1.06,1.748.9,2.656,1.2a6.392,6.392,0,0,1,3.183,1.8c.034-.809.307-1.844-.465-2.415a3.9,3.9,0,0,0-2.673-.862A22.209,22.209,0,0,0,28.771,17.437ZM6.242,15.561A7.734,7.734,0,0,0,2.06,20.329c1.708-1.55,3.431-3.3,5.744-3.878a4.113,4.113,0,0,1,1.89.01,5.82,5.82,0,0,0,1.346.11,13.634,13.634,0,0,1,3.075-1.057c-.9.707-2.08,1.091-2.765,2.052a5.723,5.723,0,0,0-.846,1.978,3.879,3.879,0,0,0,2.188.3c1.671-.592,2.836-2.374,4.733-2.353a4.669,4.669,0,0,1,2.494.762c1.027.538,2.04,1.075,3.2.567a3.4,3.4,0,0,0,2.21-3.115c-1.646-.08-2.185,1.922-3.651,2.235a7.318,7.318,0,0,1-3.647-1.234A6.985,6.985,0,0,0,14.2,15.487c.58-.673,1.128-1.513,2.049-1.739.887-.22,1.8-.263,2.706-.406-.372-1.315-1.64-2.988-3.165-2.22-.3.862.1,1.872-.434,2.675A3.383,3.383,0,0,1,13.1,15.3a9.519,9.519,0,0,1-3.275.08c-.564-.051-1.127-.1-1.685-.1A5.822,5.822,0,0,0,6.242,15.561Zm13.974-.44c-.753.112-1.215.781-1.7,1.293,1.063.459,2.2,1.159,3.4.871a35.012,35.012,0,0,1,3.193-2.53c-1.029-.58-2.03,0-2.846.648a9.633,9.633,0,0,0-1.8-.293C20.384,15.11,20.3,15.113,20.215,15.121Zm23.8-1.017c1.776.636,3.069,2.046,4.581,3.1a8.475,8.475,0,0,0-4.027-4.011c-1.927-1.127-4.126-1.037-6.3-.947-.8.033-1.592.066-2.367.039C38.365,13.757,41.437,12.93,44.012,14.1Zm-18.67.329c.474.924.688,2.049,1.671,2.61a10.284,10.284,0,0,1-.871-4.3c-.635-.462-1.262-.936-1.869-1.432q-.8.339-1.609.663a7.37,7.37,0,0,1-2.511-1.915c-.89-1.33-2.557-1.693-3.763-2.65a10.808,10.808,0,0,0-.828,2.03,12.49,12.49,0,0,1-1.274,1.348l.679.257c.759-.406,1.661-.949,2.526-.493,1.24.536,1.566,1.946,2.278,2.957.815.623,1.944,1.714,2.979.905a2.948,2.948,0,0,1,1.5-.489A1.331,1.331,0,0,1,25.342,14.433Zm15.139,2.479a10.044,10.044,0,0,0,3.141-.1,4.676,4.676,0,0,0-3-2.483c-1.317-.2-2.663-.13-3.968-.418a4.488,4.488,0,0,0-2.818.335c1.063,1.351,2.477,2.706,4.327,2.632.267-.026.535-.036.8-.036C39.47,16.839,39.976,16.876,40.481,16.912ZM3.545,16.857c.4-.316.794-.635,1.19-.958-.155-.065-.462-.2-.617-.266C3.926,16.039,3.734,16.445,3.545,16.857Zm11.881-2.008a8.028,8.028,0,0,0,2.6.88,9.671,9.671,0,0,0,2.207-1.392,5.26,5.26,0,0,0-2-.393A4.571,4.571,0,0,0,15.426,14.848Zm-8.307-.115c1.37.062,2.74.152,4.11.227a4.32,4.32,0,0,0,4.092-1.882,6.679,6.679,0,0,0-2.768-.582A7.8,7.8,0,0,0,7.119,14.733Zm-1.863-1.1c.428.239.855.474,1.286.707a13.687,13.687,0,0,1,1.571-3.5q-.414-.1-.837-.167A9.49,9.49,0,0,0,5.256,13.636Zm22.294.037a26.82,26.82,0,0,0,3.8.245,7.265,7.265,0,0,0,3.082-.235,8.525,8.525,0,0,1,2.668-.3,9.757,9.757,0,0,0-2.083-1.268,16.848,16.848,0,0,1-2.44.037,3.692,3.692,0,0,0-.619-.052C30.387,12.1,28.968,13.072,27.549,13.673ZM8.371,13.007a17.244,17.244,0,0,1,3.453-.955,15.382,15.382,0,0,1,3.49.3c-.381-.434-.707-1.038-1.345-1.1a4.881,4.881,0,0,0-.918-.086A8.255,8.255,0,0,0,8.371,13.007Zm18.283-.484a3.754,3.754,0,0,0,1.28.384c1.293-.611,1.646-2.21,1.6-3.512-.133-.921-1.113-1.277-1.807-1.7A9.177,9.177,0,0,1,26.654,12.523Zm15.858-.4q.842.209,1.693.406-.5-.642-1.014-1.258C42.961,11.553,42.735,11.839,42.512,12.124Zm2.037-.034c.2.462,1.135-.093.719-.493a9.475,9.475,0,0,0-2.139-2.536c-.663.611-1.311,1.234-1.965,1.85a26.367,26.367,0,0,1-2.942-2.439q.475-.67.952-1.339c.626.329,1.237.679,1.85,1.032.186-.208.375-.412.567-.617a14.459,14.459,0,0,0-2.762-2.015c-.536.753-1.054,1.522-1.565,2.291-1.079-.515-2.136-1.076-3.18-1.655.2-.567.409-1.128.623-1.689a18.892,18.892,0,0,0,2.22.859c.025-.227.078-.682.1-.911a22.643,22.643,0,0,0-2.908-1.268c-.369.871-.738,1.745-1.144,2.6a17.91,17.91,0,0,0-2.418-.474c.827.933,2.216.694,3.187,1.382a18.21,18.21,0,0,0,2.393,1.606A9.737,9.737,0,0,1,38.851,9.61a12.9,12.9,0,0,0,2.991,2.257q.7-.6,1.407-1.2C43.681,11.141,44.093,11.634,44.549,12.09ZM35.581,9.523a13.771,13.771,0,0,1-3.543.5,7.862,7.862,0,0,0-2.564,2.1,9.914,9.914,0,0,1,4.054-.366c1.138.2,1.479-1.277,2.5-1.411.855-.189,1.73-.269,2.591-.428a1.713,1.713,0,0,0-1.506-.748A4.151,4.151,0,0,0,35.581,9.523Zm-.186,1.621c1.466,1.128,3.4.75,5.108.632a3.227,3.227,0,0,0-2.719-1.305A4.692,4.692,0,0,0,35.395,11.144ZM20.662,7.84a5.6,5.6,0,0,1,2.483,1.965A10.677,10.677,0,0,1,25.6,11.727c.189.009.567.034.753.043a5.063,5.063,0,0,0,.781-3.317c-.257-.573-.831-.914-1.187-1.42a10.085,10.085,0,0,1-.291-1.416q-.105-.005-.209-.005C23.6,5.612,22.1,6.821,20.662,7.84Zm-.471.8c.208,1.6,1.913,2.607,3.41,2.672-.905-1.062-1.614-2.682-3.193-2.682C20.336,8.633,20.264,8.636,20.191,8.643ZM30.677,7.176a11.229,11.229,0,0,0-.8,3.732c.939-.6,1.832-1.516,3.035-1.4a7.381,7.381,0,0,0,2.9-.493A13.7,13.7,0,0,0,32.8,6.625a1.685,1.685,0,0,0-.791-.193A1.469,1.469,0,0,0,30.677,7.176ZM8.979,8.757c.673.759,1.268,1.792,2.26,2.13,1.606-.223,2.824-1.476,4.011-2.477.884-.834.31-2.006.009-2.957.558-.493,2.108-.7,1.531-1.665A7.147,7.147,0,0,0,13.644,5.1c.391.84.846,1.652,1.311,2.455-1.017.862-2.129,1.6-3.171,2.424-.406-.422-.812-.846-1.215-1.268a22.208,22.208,0,0,1,1.816-1.636l-.533-.719A13.367,13.367,0,0,0,8.979,8.757ZM26.331,7.071a9.17,9.17,0,0,1,3.286,1.06c.4-.691.787-1.395,1.135-2.117-.908-.434-1.851-.784-2.774-1.175C27.317,5.487,26.111,5.955,26.331,7.071Zm-8.354.983a4.863,4.863,0,0,0,3.568-1.519C20.327,6.829,18.653,6.829,17.977,8.054Zm.632-5.186c.208.921.462,1.826.691,2.74-.772.515-2.294.536-2.266,1.708,2.545-.71,5.059-1.547,7.641-2.12a5.988,5.988,0,0,1,.882-.009,2.589,2.589,0,0,0,1.871-.4,21.193,21.193,0,0,0-2.5-.214c-.016-.589-.028-1.181-.037-1.77.676-.05,1.355-.09,2.033-.127.019-.319.037-.636.056-.955a19.761,19.761,0,0,0-3.233.139c.04.942.09,1.885.127,2.827a31.67,31.67,0,0,1-3.568.6c-.13-.567-.254-1.132-.375-1.7q.888-.256,1.779-.505c-.006-.214-.015-.645-.018-.859A10.77,10.77,0,0,0,18.61,2.868ZM29.322,5.084c.171-.639.332-1.277.5-1.916.7.074,1.4.149,2.1.22.015-.214.043-.648.059-.862a14.044,14.044,0,0,0-3.118-.564C28.8,3,28.052,4.538,29.322,5.084ZM32,39.442c.394.2.387.412-.025.629C31.579,39.863,31.589,39.656,32,39.442Zm-8.094-2.9a3.512,3.512,0,0,1-1.342-.366c1.024-.04,2.049-.039,3.074-.038.806,0,1.613,0,2.419-.018a6.688,6.688,0,0,1-2.712.444C24.867,36.563,24.385,36.545,23.91,36.541Zm-2.228-1.562c.708.039,1.418.022,2.128.006.542-.013,1.084-.025,1.626-.013.3,0,.6.007.9.019a5.49,5.49,0,0,0,2.578-.307c.192.2.381.4.576.608a12.887,12.887,0,0,1-3.087.186c-1.643-.1-3.277.093-4.916.121C21.536,35.443,21.632,35.133,21.682,34.978Zm4.082-1.6a13.066,13.066,0,0,1,1.885,1.029,15.9,15.9,0,0,0-4.358.006C24.146,34.147,24.924,33.673,25.764,33.382Zm-3.518-1.175c.642.065,1.289.124,1.937.164-.139-1.689.267-3.36.174-5.05.059-.66-.17-1.46.369-1.975a38.068,38.068,0,0,1-.2,5.973c-.006.753.88.75,1.419.893a3.9,3.9,0,0,0,2.34-.449c-.071.158-.217.474-.291.636-1.724.09-3.438.3-5.158.409Zm7.3-4.628c-.7-.1-2.145-.183-1.866-1.2q-.186-.753-.363-1.506c.806-.648,1.671-1.5,2.8-1.376a36.685,36.685,0,0,1,3.9.927c-1.361.682-2.752-.31-4.135-.369a6.763,6.763,0,0,0-1.4.7l.285.078c.694.2,1.4.36,2.1.527-.7-.167-1.407-.332-2.1-.527a5.955,5.955,0,0,1,3.844.961c.456-.273.915-.549,1.382-.806-.988,1.242-2.3,2.628-3.982,2.628A3.117,3.117,0,0,1,29.546,27.579ZM28.6,26.116c.071.335.146.673.22,1.011a5.6,5.6,0,0,0,2.66-.115c-.031-.873-.694-1.119-1.433-1.119A5.819,5.819,0,0,0,28.6,26.116Z"/>
</svg>
