<svg xmlns="http://www.w3.org/2000/svg" width="17.683" height="19.5" viewBox="0 0 17.683 19.5">
  <g id="Group_17337" data-name="Group 17337" transform="translate(-29.969 -45.276)">
    <path id="Shape" d="M16.183,1.52H0c-.414,0-.75-.508-.75-1.135S-.414-.75,0-.75H16.183c.414,0,.75.508.75,1.135S16.6,1.52,16.183,1.52Z" transform="translate(30.719 49.576)" fill="#fa4248"/>
    <path id="Shape-2" data-name="Shape" d="M11.142,18.75H1.857A2.582,2.582,0,0,1-.75,16.2V3.6A.75.75,0,0,1,0,2.85H2.035V1.8A2.582,2.582,0,0,1,4.643-.75H8.357A2.582,2.582,0,0,1,10.964,1.8V2.85H13a.75.75,0,0,1,.75.75V16.2A2.582,2.582,0,0,1,11.142,18.75ZM.75,4.35V16.2a1.081,1.081,0,0,0,1.107,1.05h9.285A1.081,1.081,0,0,0,12.25,16.2V4.35H10.214a.75.75,0,0,1-.75-.75V1.8A1.081,1.081,0,0,0,8.357.75H4.643A1.081,1.081,0,0,0,3.535,1.8V3.6a.75.75,0,0,1-.75.75Z" transform="translate(32.719 46.026)" fill="#fa4248"/>
    <g id="Group_17336" data-name="Group 17336" transform="translate(-3.239)">
      <path id="Shape-3" data-name="Shape" d="M0,6.144a.75.75,0,0,1-.75-.75V0A.75.75,0,0,1,0-.75.75.75,0,0,1,.75,0V5.394A.75.75,0,0,1,0,6.144Z" transform="translate(40.458 53.705)" fill="#fa4248"/>
      <path id="Shape-4" data-name="Shape" d="M0,6.144a.75.75,0,0,1-.75-.75V0A.75.75,0,0,1,0-.75.75.75,0,0,1,.75,0V5.394A.75.75,0,0,1,0,6.144Z" transform="translate(44.054 53.705)" fill="#fa4248"/>
    </g>
  </g>
</svg>
