<svg id="Icon_Facebook" xmlns="http://www.w3.org/2000/svg" width="19.009" height="19.003" viewBox="0 0 19.009 19.003">
  <path id="Path_76" data-name="Path 76" d="M16.446,0H2.563A2.559,2.559,0,0,0,0,2.563V16.446A2.558,2.558,0,0,0,2.563,19H9.408L9.42,12.21H7.653a.423.423,0,0,1-.418-.413L7.229,9.606a.417.417,0,0,1,.418-.418H9.408V7.072A3.456,3.456,0,0,1,13.1,3.283h1.8a.417.417,0,0,1,.418.418V5.55a.417.417,0,0,1-.418.418h-1.1c-1.191,0-1.424.564-1.424,1.395V9.193h2.615a.414.414,0,0,1,.413.465l-.262,2.191a.415.415,0,0,1-.413.366H12.372V19h4.074a2.563,2.563,0,0,0,2.563-2.563V2.563A2.567,2.567,0,0,0,16.446,0Zm0,0" fill="#475993"/>
</svg>
