<svg xmlns="http://www.w3.org/2000/svg" width="17" height="17.635" viewBox="0 0 17 17.635">
  <g id="Group_16247" data-name="Group 16247" transform="translate(-85 360.5) rotate(-90)">
    <g id="Group_16244" data-name="Group 16244" transform="translate(0 -1.5)">
      <line id="Line_287" data-name="Line 287" x1="9.865" transform="translate(344.5 95.5)" fill="none" stroke="#000" stroke-linecap="round" stroke-width="2"/>
      <g id="Group_16242" data-name="Group 16242" transform="translate(-1 -5.59)">
        <g id="Group_16238" data-name="Group 16238" transform="translate(339.865 83.09)">
          <path id="Path_14595" data-name="Path 14595" d="M18,21a3,3,0,1,1,3-3A3,3,0,0,1,18,21Zm0-4.5A1.5,1.5,0,1,0,19.5,18,1.5,1.5,0,0,0,18,16.5Z"/>
        </g>
      </g>
    </g>
    <g id="Group_16245" data-name="Group 16245">
      <line id="Line_286" data-name="Line 286" x1="11.135" transform="translate(348.365 88)" fill="none" stroke="#000" stroke-linecap="round" stroke-width="2"/>
      <g id="Group_16243" data-name="Group 16243" transform="translate(-12 -13.09)">
        <g id="Group_16238-2" data-name="Group 16238" transform="translate(339.865 83.09)">
          <path id="Path_14595-2" data-name="Path 14595" d="M18,21a3,3,0,1,1,3-3A3,3,0,0,1,18,21Zm0-4.5A1.5,1.5,0,1,0,19.5,18,1.5,1.5,0,0,0,18,16.5Z"/>
        </g>
      </g>
    </g>
    <g id="Group_16246" data-name="Group 16246" transform="translate(0 11)">
      <line id="Line_286-2" data-name="Line 286" x1="11.135" transform="translate(348.365 88)" fill="none" stroke="#000" stroke-linecap="round" stroke-width="2"/>
      <g id="Group_16243-2" data-name="Group 16243" transform="translate(-12 -13.09)">
        <g id="Group_16238-3" data-name="Group 16238" transform="translate(339.865 83.09)">
          <path id="Path_14595-3" data-name="Path 14595" d="M18,21a3,3,0,1,1,3-3A3,3,0,0,1,18,21Zm0-4.5A1.5,1.5,0,1,0,19.5,18,1.5,1.5,0,0,0,18,16.5Z"/>
        </g>
      </g>
    </g>
  </g>
</svg>
