<svg id="icons8_Google_2" xmlns="http://www.w3.org/2000/svg" width="19.009" height="19.009" viewBox="0 0 19.009 19.009">
  <path id="Path_72" data-name="Path 72" d="M22.823,11.642h-.765V11.6H13.5v3.8h5.372a5.708,5.708,0,1,1-1.589-6.159l2.688-2.688a9.482,9.482,0,1,0,2.848,5.084Z" transform="translate(-4 -4)" fill="#ffc107"/>
  <path id="Path_73" data-name="Path 73" d="M6.3,9.081l3.124,2.291A5.69,5.69,0,0,1,18.5,9.246l2.688-2.688A9.485,9.485,0,0,0,6.3,9.081Z" transform="translate(-5.209 -4)" fill="#ff3d00"/>
  <path id="Path_74" data-name="Path 74" d="M14.656,35.632a9.465,9.465,0,0,0,6.373-2.467l-2.942-2.489A5.687,5.687,0,0,1,9.3,28.055L6.2,30.442A9.5,9.5,0,0,0,14.656,35.632Z" transform="translate(-5.152 -16.623)" fill="#4caf50"/>
  <path id="Path_75" data-name="Path 75" d="M33.319,20.039h-.765V20H24v3.8h5.372a5.728,5.728,0,0,1-1.944,2.647h0l2.942,2.489A9.2,9.2,0,0,0,33.5,21.9,9.482,9.482,0,0,0,33.319,20.039Z" transform="translate(-14.496 -12.397)" fill="#1976d2"/>
</svg>
