<svg xmlns="http://www.w3.org/2000/svg" width="19.692" height="19.692" viewBox="0 0 19.692 19.692">
  <g id="Group_17339" data-name="Group 17339" transform="translate(-92 -678)">
    <g id="Calling" transform="translate(92 678)">
      <path id="Fill_1" data-name="Fill 1" d="M1.88,6.116c-.535-1.183-.57-2.067-.072-2.757.321-.536,1.777-1.929,2.429-1.9a.877.877,0,0,1,.464.286A18.474,18.474,0,0,1,6.821,4.54c.051.243-.07.471-.288.853a2.381,2.381,0,0,0-.354,2.137,10.127,10.127,0,0,0,3.472,4.507.721.721,0,0,0,1.011-.169.734.734,0,0,0-.168-1.02A8.66,8.66,0,0,1,7.533,7c-.088-.242,0-.434.257-.883a2.594,2.594,0,0,0,.452-1.879A15.121,15.121,0,0,0,5.715.7,2.221,2.221,0,0,0,4.331,0C2.609-.11.769,2.268.6,2.55-.187,3.635-.2,5.039.56,6.721a.723.723,0,0,0,.96.362.733.733,0,0,0,.36-.967" transform="translate(0 0.207)" fill="#fff"/>
      <path id="Fill_3" data-name="Fill 3" d="M13.215,2.943a2.943,2.943,0,0,0-2.227.613l-.226.141a.733.733,0,0,0-.248,1,.724.724,0,0,0,1,.249l.251-.158c.488-.309.805-.494,1.117-.43a17.452,17.452,0,0,1,2.816,2.146.967.967,0,0,1,.28.432c.026.754-1.422,2.2-1.931,2.513-.653.471-1.532.437-2.712-.114C8.413,8.118,3.83,3.985,1.322.317A.723.723,0,0,0,.314.128.734.734,0,0,0,.128,1.143c2.684,3.929,7.46,8.211,10.618,9.533a5.4,5.4,0,0,0,2.262.573,3.025,3.025,0,0,0,1.817-.569c.273-.158,2.659-2.033,2.6-3.826a2.236,2.236,0,0,0-.691-1.367,15,15,0,0,0-3.515-2.545" transform="translate(1.916 8.443)" fill="#fff"/>
      <path id="Fill_5" data-name="Fill 5" d="M3.4,4.274a.727.727,0,0,0,.711.59.759.759,0,0,0,.14-.013.731.731,0,0,0,.573-.857A5,5,0,0,0,.864.011.737.737,0,0,0,.013.588a.731.731,0,0,0,.573.857A3.551,3.551,0,0,1,3.4,4.274" transform="translate(11.433 3.453)" fill="#fff"/>
      <path id="Fill_7" data-name="Fill 7" d="M.806.006A.723.723,0,0,0,0,.651a.729.729,0,0,0,.641.806,6.971,6.971,0,0,1,6.168,6.2.727.727,0,0,0,.719.649.79.79,0,0,0,.082,0A.728.728,0,0,0,8.254,7.5,8.414,8.414,0,0,0,.806.006" transform="translate(11.433 0)" fill="#fff"/>
    </g>
  </g>
</svg>
