<svg xmlns="http://www.w3.org/2000/svg" width="1261.885" height="395.433" viewBox="0 0 1261.885 395.433">
  <path id="Union_21" data-name="Union 21" d="M159.473,391.76a197.773,197.773,0,0,1-71.44-358.6,197.562,197.562,0,0,1,205.828-8.127,198.664,198.664,0,0,1,92.885,115.344c8.367-11.17,18.313-21.286,30.1-28.853a96.088,96.088,0,0,1,42.664-14.907c18.238-1.864,37.119.477,53.862,8.185,14.881,6.764,27.724,17.541,38.038,30.14a96.052,96.052,0,0,1,20.042,42.84c2.731,13.594,1.678,27.515,1.887,41.285q0,40.583.008,81.148c-4.894.025-9.779.008-14.664.008q-.025-24.806,0-49.6c-14.672,24.547-39.925,42.572-68.058,47.823-22.171,4.063-45.845,1.346-65.946-9.113a107.714,107.714,0,0,1-38.113-33.936A197.268,197.268,0,0,1,197.579,395.433,198.951,198.951,0,0,1,159.473,391.76Zm-47-308.391q-.013,114.349,0,228.714,42.939.013,85.87.008c1.319-.017,2.639-.008,3.967-.008a112.55,112.55,0,0,0,13.637-.5,107.41,107.41,0,0,0,53.762-18.419c23.031-15.81,41.127-39.6,47.683-67.011,7.081-29.789,2.981-62.73-13.737-88.681C288.951,114.555,266.529,96.128,240.3,88.26c-12.977-3.955-26.63-5.125-40.142-4.891q-29.226,0-58.455,0Q127.087,83.366,112.475,83.369ZM459.1,111.411c-26.614,3.093-50.346,20.308-63.85,43.124-14.7,25.859-14.99,59.269-.952,85.463a92.627,92.627,0,0,0,36.117,35.692c15.816,8.6,34.4,11.329,52.167,9.239,28.818-3.06,54.455-22.6,67.4-48.2,8.033-16.061,10.238-34.663,7.716-52.338-3.816-28.226-23.424-52.99-48.676-65.43a85.917,85.917,0,0,0-37.66-8.319A98.689,98.689,0,0,0,459.1,111.411Zm733.393,247.124c.443-.343,1.328-.995,1.779-1.321a13.136,13.136,0,0,0,23.841-8.285c-1.829,1.8-3.557,3.812-5.921,4.908A14.367,14.367,0,0,1,1196,351.328a13.94,13.94,0,0,1-4.417-10.008c-.117-5.15-.008-10.3-.033-15.45.568,0,1.7.008,2.263.008.042,5.184-.058,10.359.033,15.534a12.073,12.073,0,0,0,24.134-.109c.075-5.142-.025-10.292.025-15.434.568,0,1.7.008,2.263.008-.033,8.093.058,16.195-.042,24.288a15.285,15.285,0,0,1-8.869,13.469,14.421,14.421,0,0,1-6.172,1.36A15.672,15.672,0,0,1,1192.489,358.535Zm-291.381,4.3a26.812,26.812,0,0,1-4.693-4.105c.576-.527,1.161-1.045,1.754-1.572,3.833,5.409,11.741,7.324,17.445,3.771a13.62,13.62,0,0,0,6.455-12.19c-2.664,3.4-6.43,6.2-10.873,6.471a14.378,14.378,0,0,1-14.931-9.548c-1.528-6.463-.4-13.227-.71-19.806.551.008,1.645.033,2.2.042.033,5.159-.067,10.325.025,15.492-.025,6.446,6.063,12.081,12.476,11.663A12.068,12.068,0,0,0,921.9,341.362c.092-5.159-.008-10.317.033-15.492.568.017,1.7.017,2.263.017-.025,8.118.058,16.228-.025,24.346a14.969,14.969,0,0,1-5.461,11.2,14.812,14.812,0,0,1-9.77,3.549A15,15,0,0,1,901.108,362.832ZM754.77,339.5a14.9,14.9,0,0,1,5.787-11.471,15.218,15.218,0,0,1,24.618,12.424c.033,7.834-7.023,14.865-14.848,14.79a15.648,15.648,0,0,1-13.386-7.182c.05,5.535.008,11.061.025,16.588l-2.2.033C754.737,356.286,754.7,347.892,754.77,339.5Zm11.449-11.947a13.112,13.112,0,0,0-9.244,12.9c.008,6.931,6.488,13.034,13.42,12.574,7.265,0,13.47-7.157,12.468-14.364-.477-6.555-6.638-11.7-13.005-11.7A11.353,11.353,0,0,0,766.219,327.551Zm303.406,16.462c-.292-6.02,0-12.048-.125-18.067.718-.033,1.478-.059,2.238-.092.025,5.71-.084,11.421.033,17.123a10.8,10.8,0,0,0,21.562.142c.108-5.727.008-11.462.017-17.189.735-.017,1.478-.042,2.238-.067-.058,5.735.075,11.488-.05,17.223a12.978,12.978,0,0,1-12.6,12.307c-.227.014-.455.021-.681.021A13,13,0,0,1,1069.625,344.013Zm-106.973-.9c-.142-5.744-.008-11.5-.058-17.256.576.033,1.737.075,2.322.1-.05,5.71-.117,11.421-.008,17.114a10.788,10.788,0,0,0,21.528.033c.184-5.727.008-11.462.067-17.2l2.188-.067c.017,5.744.1,11.487-.017,17.231a13.036,13.036,0,0,1-12.9,12.324c-.149.006-.3.009-.447.009C968.789,355.4,962.767,349.707,962.653,343.11Zm283.156,12.123c-8.008-.142-14.964-7.658-14.438-15.668-.042-8.361,7.958-15.6,16.259-14.723,8.1.3,14.639,7.976,14.238,15.986q-6.5.013-12.994,0c-5.111,0-10.229-.008-15.34.025.468,6.02,5.294,11.446,11.382,12.073,5.7.844,11.249-2.667,13.679-7.742.584.017,1.737.059,2.321.075a15.544,15.544,0,0,1-14.06,10.015Q1246.334,355.274,1245.809,355.233ZM1233.575,338.6q12.99.038,25.988,0c-.76-6.312-6.388-11.638-12.818-11.554-.156-.006-.312-.01-.468-.01C1239.928,327.039,1234.325,332.319,1233.575,338.6Zm-305.385.911a15.28,15.28,0,0,1,9.779-13.762c8.693-3.612,19.474,2.742,20.5,12.1,1.553,8.637-5.829,17.407-14.564,17.39q-.462.033-.922.033C934.863,355.274,927.6,347.709,928.189,339.515Zm11.616-11.981a13,13,0,0,0,4.058,25.483c7.265-.017,13.461-7.157,12.451-14.372-.493-6.541-6.632-11.659-12.993-11.659A11.431,11.431,0,0,0,939.805,327.534Zm206.722,24.605c.292-.468.885-1.413,1.186-1.9,3.633,2.2,8.25,3.9,12.367,1.906a5.682,5.682,0,0,0,1.578-9.021c-3.791-3.486-9.436-3.746-13.353-7.015-3.09-2.508-2.338-7.892,1.044-9.774,4.309-2.583,9.678-1.471,14.121.184-.376.644-.743,1.3-1.086,1.948-3.607-1.229-7.783-2.257-11.382-.5-2.455,1.053-3.323,4.791-1.111,6.546,4.234,3.135,10.179,3.428,13.8,7.5a8,8,0,0,1-1.954,11.805,10.9,10.9,0,0,1-5.569,1.451A18.534,18.534,0,0,1,1146.527,352.139Zm-336.35,3.1c-8.827.084-16.284-8.829-14.639-17.524a15.358,15.358,0,0,1,11.591-12.549c8.969-2.4,18.764,5.117,18.681,14.431.517,8.147-6.717,15.669-14.8,15.67Q810.6,355.268,810.177,355.241Zm-3.19-27.707a13.012,13.012,0,0,0,4.083,25.492c7.265-.025,13.461-7.14,12.451-14.364-.472-6.553-6.634-11.678-13.007-11.679A11.44,11.44,0,0,0,806.987,327.534Zm299.256,25.1c-7.474-4.74-8.927-16.278-2.839-22.691,5.06-6.095,15.048-6.889,21.019-1.706a15.9,15.9,0,0,1,5.7,12.583c-4.184.025-8.367.017-12.551.008-5.286,0-10.572-.008-15.85.05.534,6.245,5.779,11.822,12.15,12.123a13.354,13.354,0,0,0,12.9-7.767c.576-.008,1.745-.017,2.33-.025-2.012,6.225-8.334,10.059-14.595,10.059A13.809,13.809,0,0,1,1106.243,352.632Zm-4.409-14.021c8.651.008,17.319.025,25.971-.017-.777-6.362-6.505-11.73-12.994-11.538-.108,0-.217,0-.324,0A13.179,13.179,0,0,0,1101.834,338.612ZM862.386,355.233c-8.033-.067-15.065-7.6-14.555-15.643-.042-8.436,8.058-15.7,16.426-14.74,8.05.4,14.413,8.018,14.113,15.96-4.977.033-9.954.025-14.931.025-4.484-.008-8.96-.017-13.436.017a13.709,13.709,0,0,0,5.161,9.506,12.965,12.965,0,0,0,17.386-1.522c1.461-1.547,2.079-4.473,4.852-3.687a15.449,15.449,0,0,1-14.1,10.115C863,355.264,862.693,355.254,862.386,355.233ZM850.01,338.578c8.676.084,17.361.042,26.037.025-.793-6.262-6.338-11.613-12.743-11.554-.193-.01-.387-.015-.579-.015C856.369,327.034,850.845,332.337,850.01,338.578Zm319.64,7.207c-.317-8.31-.042-16.629-.117-24.948.543,0,1.645,0,2.2-.008-.017,1.68,0,3.361.017,5.041h6.781c2.714,0,5.436,0,8.15.017,0,.543-.008,1.647-.008,2.207h-5.979q-4.484-.013-8.952.008c.059,5.56-.125,11.128.067,16.688a8.889,8.889,0,0,0,9.4,8.16c2.029-.017,3.8-1.112,5.511-2.115-.008.7-.042,2.107-.05,2.8a10.645,10.645,0,0,1-5.663,1.585C1175.634,355.221,1170.293,351.471,1169.65,345.785Zm-142.371.075c-.359-8.327-.05-16.7-.142-25.04.568.008,1.7.033,2.263.042-.017,1.672-.025,3.328-.008,5,2.489.017,4.977.008,7.466.008s4.985,0,7.482.017c0,.543-.008,1.655-.008,2.207q-3.319,0-6.639-.008-4.159,0-8.292.008c.042,5.56-.1,11.136.05,16.7a8.861,8.861,0,0,0,9.219,8.168c2.121.008,3.983-1.1,5.737-2.182-.025.711-.075,2.132-.1,2.851a10.646,10.646,0,0,1-5.662,1.584C1033.3,355.221,1027.982,351.508,1027.279,345.86Zm-238.112,8.361q.025-18.134.008-36.26h2.213c-.025,11.638.05,23.284-.033,34.922q.094,1.505-1.184,1.5A3.718,3.718,0,0,1,789.167,354.221Zm260.1-17.348c.2-7.851,8.693-13.9,16.209-11.663.058.552.192,1.639.25,2.19-4.259-1.045-9.111-.008-11.833,3.6-2.58,2.8-2.58,6.806-2.48,10.376.025,4.247,0,8.494.017,12.75-.518.05-1.528.167-2.046.217C1049.066,348.527,1049.2,342.692,1049.266,336.873Zm-310.621,3.052c-3.39-4.707-6.8-9.406-10.063-14.2.66.059,1.962.176,2.622.226,3.115,3.913,5.787,8.152,8.777,12.173,2.848-4.063,5.8-8.06,8.576-12.19.71-.033,2.129-.109,2.831-.142-3.315,4.757-6.706,9.464-10.071,14.188,3.332,4.782,6.764,9.473,10.079,14.255-.71-.042-2.154-.134-2.881-.184-2.722-4.13-5.7-8.093-8.543-12.131-2.99,4-5.653,8.26-8.777,12.156-.66.059-1.954.159-2.614.217C731.822,349.422,735.388,344.782,738.645,339.924Zm486.5-21.972c.551.008,1.654.008,2.2.008.042,12.023-.083,24.054.075,36.085-.785.067-1.545.125-2.288.192Q1225.145,336.091,1225.141,317.953Zm-395.364,36.21c.125-6.179-.259-12.374.209-18.536,1.019-7.424,8.96-12.248,16.092-10.6.058.794.125,1.589.217,2.4-6.079-1.956-13.2,2.182-14.079,8.578-.409,6.07-.008,12.156-.192,18.226Zm163.808.008c.125-6.187-.251-12.382.2-18.544,1.01-7.416,9.01-12.349,16.159-10.526.008.761.025,1.53.058,2.3-6.063-1.9-13.127,2.241-14.012,8.6-.443,6.061-.033,12.148-.209,18.218C995.237,354.2,994.135,354.179,993.584,354.171Zm-290.8-.042c-.017-9.439,0-18.87,0-28.3,3.248-.025,6.514-.017,9.77-.017,4.192.008,8.384.017,12.585-.025.033.569.1,1.681.142,2.241h-9.2q-5.524,0-11.031.017c0,3.746-.008,7.491.008,11.245q9.395,0,18.806,0V341.5c-6.28.008-12.543,0-18.814.008q-.013,5.192,0,10.4,5.5.013,11.006.008c3.065,0,6.121,0,9.186.008v2.207q-5.618.006-11.231.006T702.787,354.129ZM861.876,300.22h-6.071c-.192-38.9-.234-77.8-.392-116.706-.109-14.581,3.1-29.312,10.146-42.129a92.66,92.66,0,0,1,33.478-34.6c14.221-8.519,31.023-12.19,47.507-11.529a83.715,83.715,0,0,1,43.641,13.586,92.215,92.215,0,0,1,31.774,35.65,87.021,87.021,0,0,1,8.543,39q.012,58.366,0,116.74c-4.844-.008-9.67,0-14.489-.008q-.025-58.78-.033-117.559a70.339,70.339,0,0,0-11.908-39.872c-9.6-13.962-23.624-25.258-40.017-30.006a76.96,76.96,0,0,0-42.121-.008c-15.557,4.465-29.019,14.849-38.53,27.824a70.09,70.09,0,0,0-13.328,41.193c.033,39.487.284,78.966.309,118.454C867.547,300.22,864.716,300.22,861.876,300.22Zm252.075-10.484c-22.3-11.521-40.568-31.16-49.7-54.628-7.357-19.271-8.392-40.75-3.992-60.832,5.937-26.863,24.276-49.963,47.449-64.243,18.631-11.471,41.144-15.626,62.789-13.511a96.037,96.037,0,0,1,46.263,16.83,113.661,113.661,0,0,1,28.6,29.028,97.458,97.458,0,0,1,16.367,52.655c.075,35.065.025,70.129.025,105.194q-3.332-.013-6.647-.008c-2.647,0-5.3,0-7.95-.008q0-24.819,0-49.62c-14.772,24.664-40.192,42.773-68.526,47.923a109.791,109.791,0,0,1-19.339,1.722A100.234,100.234,0,0,1,1113.951,289.735Zm36.376-178.642c-27.582,2.266-52.518,19.689-66.513,43.233a85.305,85.305,0,0,0-11.482,44.286,84.582,84.582,0,0,0,12.91,45.641,93.153,93.153,0,0,0,33.3,31.277c14.981,8.227,32.484,11.161,49.419,9.707a82.8,82.8,0,0,0,42.923-16.078,92.974,92.974,0,0,0,27.674-32.707c7.808-15.726,10-33.877,7.708-51.192a82.436,82.436,0,0,0-16.576-39.663c-9.111-11.7-20.8-21.579-34.38-27.64a86.409,86.409,0,0,0-35.54-7.317C1156.616,110.641,1153.461,110.794,1150.327,111.093Zm-342.721-7.951h14.714q0,98.547-.008,197.077c-4.9.008-9.812,0-14.706.008Q807.58,201.681,807.605,103.142Zm-229.678.008c1.7,0,3.415-.008,5.127-.008,3.766-.017,7.532-.025,11.3.05q43.34,82.444,86.864,164.8,43.44-82.419,86.881-164.83,5.211-.038,10.438-.017h5.971q-51.62,98.371-103.29,196.734Q629.51,201.543,577.927,103.151Z" transform="translate(0 0)" fill="#fff"/>
</svg>
