<svg id="Icon_Alert" xmlns="http://www.w3.org/2000/svg" width="21.489" height="24.415" viewBox="0 0 21.489 24.415">
  <g id="Group_198" data-name="Group 198" transform="translate(0 0)">
    <path id="Path_22" data-name="Path 22" d="M19.371,41v.488a1.465,1.465,0,1,1-2.929,0V41H14v.488a3.906,3.906,0,1,0,7.812,0V41Z" transform="translate(-7.162 -20.979)" fill="#0e3958"/>
    <path id="Path_23" data-name="Path 23" d="M20.21,17.573h0A1.188,1.188,0,0,1,19.038,16.4V10.738a8.306,8.306,0,0,0-7.079-8.2V1.266A1.23,1.23,0,0,0,10.884,0,1.247,1.247,0,0,0,9.517,1.217V2.536a8.306,8.306,0,0,0-7.079,8.2V16.4a1.188,1.188,0,0,1-1.172,1.172h0A1.23,1.23,0,0,0,0,18.647a1.247,1.247,0,0,0,1.221,1.367H20.259a1.246,1.246,0,0,0,1.221-1.367A1.23,1.23,0,0,0,20.21,17.573Zm-15.331,0v-6.64a5.984,5.984,0,0,1,5.273-6.005,5.842,5.842,0,0,1,6.445,5.81v6.835Z" transform="translate(0.006 0.006)" fill="#111"/>
  </g>
  <g id="Group_17370" data-name="Group 17370">
    <path id="Path_22-2" data-name="Path 22" d="M19.371,41v.488a1.465,1.465,0,1,1-2.929,0V41H14v.488a3.906,3.906,0,1,0,7.812,0V41Z" transform="translate(-7.162 -20.979)" fill="#0e3958"/>
    <path id="Path_23-2" data-name="Path 23" d="M20.21,17.573h0A1.188,1.188,0,0,1,19.038,16.4V10.738a8.306,8.306,0,0,0-7.079-8.2V1.266A1.23,1.23,0,0,0,10.884,0,1.247,1.247,0,0,0,9.517,1.217V2.536a8.306,8.306,0,0,0-7.079,8.2V16.4a1.188,1.188,0,0,1-1.172,1.172h0A1.23,1.23,0,0,0,0,18.647a1.247,1.247,0,0,0,1.221,1.367H20.259a1.246,1.246,0,0,0,1.221-1.367A1.23,1.23,0,0,0,20.21,17.573Zm-15.331,0v-6.64a5.984,5.984,0,0,1,5.273-6.005,5.842,5.842,0,0,1,6.445,5.81v6.835Z" transform="translate(0.006 0.006)" fill="#111"/>
  </g>
</svg>
