<svg xmlns="http://www.w3.org/2000/svg" width="20.811" height="20.811" viewBox="0 0 20.811 20.811">
  <g id="Group_16273" data-name="Group 16273" transform="translate(0.25 0.25)">
    <path id="Path_14608" data-name="Path 14608" d="M16.892,26.311H15.419a1.479,1.479,0,0,1-1.475-1.283l-.217-1.655a7.369,7.369,0,0,1-.962-.4l-1.317,1.011a1.483,1.483,0,0,1-1.953-.131l-1.04-1.04a1.483,1.483,0,0,1-.129-1.954l1.01-1.315a7.3,7.3,0,0,1-.4-.962l-1.649-.217A1.48,1.48,0,0,1,6,16.892V15.419a1.479,1.479,0,0,1,1.283-1.475l1.655-.217a7.368,7.368,0,0,1,.4-.962L8.324,11.447a1.483,1.483,0,0,1,.13-1.953L9.5,8.454a1.483,1.483,0,0,1,1.955-.129l1.314,1.01a7.3,7.3,0,0,1,.962-.4l.217-1.649A1.48,1.48,0,0,1,15.419,6h1.473a1.479,1.479,0,0,1,1.475,1.283l.217,1.655a7.368,7.368,0,0,1,.962.4l1.317-1.011a1.484,1.484,0,0,1,1.953.131l1.04,1.04a1.483,1.483,0,0,1,.129,1.954l-1.01,1.315a7.3,7.3,0,0,1,.4.962l1.649.217a1.48,1.48,0,0,1,1.289,1.476v1.473a1.479,1.479,0,0,1-1.283,1.475l-1.655.217a7.369,7.369,0,0,1-.4.962l1.011,1.317a1.484,1.484,0,0,1-.131,1.953l-1.04,1.04a1.484,1.484,0,0,1-1.954.129l-1.315-1.01a7.3,7.3,0,0,1-.962.4l-.217,1.649a1.48,1.48,0,0,1-1.476,1.289ZM12.7,21.588a.637.637,0,0,1,.317.085,6.058,6.058,0,0,0,1.447.6.637.637,0,0,1,.465.53l.271,2.056a.215.215,0,0,0,.217.184h1.473a.215.215,0,0,0,.217-.19l.27-2.051a.633.633,0,0,1,.465-.53,6.044,6.044,0,0,0,1.447-.6.636.636,0,0,1,.7.047l1.642,1.261a.206.206,0,0,0,.281-.021l1.041-1.041a.208.208,0,0,0,.023-.28l-1.263-1.643a.634.634,0,0,1-.047-.7,6.058,6.058,0,0,0,.6-1.447.637.637,0,0,1,.53-.465l2.056-.271a.215.215,0,0,0,.184-.217V15.419a.215.215,0,0,0-.19-.217l-2.051-.27a.633.633,0,0,1-.53-.465,6.044,6.044,0,0,0-.6-1.447.637.637,0,0,1,.047-.7l1.261-1.642a.208.208,0,0,0-.021-.281L21.918,9.352a.207.207,0,0,0-.279-.024l-1.643,1.263a.636.636,0,0,1-.7.047,6.058,6.058,0,0,0-1.447-.6.637.637,0,0,1-.465-.53l-.271-2.056a.213.213,0,0,0-.217-.184H15.419a.215.215,0,0,0-.217.19l-.27,2.051a.633.633,0,0,1-.465.53,6.044,6.044,0,0,0-1.447.6.637.637,0,0,1-.7-.047L10.674,9.33a.209.209,0,0,0-.281.021L9.352,10.392a.208.208,0,0,0-.023.28l1.263,1.643a.634.634,0,0,1,.047.7,6.058,6.058,0,0,0-.6,1.447.637.637,0,0,1-.53.465L7.455,15.2a.213.213,0,0,0-.185.217v1.473a.215.215,0,0,0,.19.217l2.051.27a.633.633,0,0,1,.53.465,6.044,6.044,0,0,0,.6,1.447.637.637,0,0,1-.047.7L9.33,21.637a.208.208,0,0,0,.021.281l1.041,1.041a.209.209,0,0,0,.28.023l1.643-1.263a.638.638,0,0,1,.387-.13Z" transform="translate(-6 -6)" stroke="#000" stroke-width="0.5"/>
    <path id="Path_14609" data-name="Path 14609" d="M17.231,21.463a4.231,4.231,0,1,1,4.231-4.231A4.236,4.236,0,0,1,17.231,21.463Zm0-7.193a2.962,2.962,0,1,0,2.962,2.962A2.965,2.965,0,0,0,17.231,14.269Z" transform="translate(-7.076 -7.076)" fill="#0e3958" stroke="#0e3958" stroke-width="0.5"/>
  </g>
</svg>
