<svg xmlns="http://www.w3.org/2000/svg" width="16.21" height="19.018" viewBox="0 0 16.21 19.018">
  <g id="Iconly_Broken_Paper" data-name="Iconly/Broken/Paper" transform="translate(0.15 0.15)">
    <g id="Paper" transform="translate(0)">
      <path id="Fill_1" data-name="Fill 1" d="M15.715,5.2,10.989.229a.7.7,0,0,0-.5-.218h-.192A.535.535,0,0,0,10.239,0a.5.5,0,0,0-.054.011H4.277A4.306,4.306,0,0,0,0,4.232V8.124a.7.7,0,0,0,.7.707.7.7,0,0,0,.7-.707V4.232A2.881,2.881,0,0,1,4.277,1.425H9.539V3.449a3.122,3.122,0,0,0,3.095,3.133h0a.707.707,0,0,0,0-1.413,1.713,1.713,0,0,1-1.7-1.72V2.217l3.572,3.757v8.353a2.959,2.959,0,0,1-2.78,2.977H4.277A2.9,2.9,0,0,1,1.4,14.327V11.965a.7.7,0,0,0-.7-.707.7.7,0,0,0-.7.707v2.361a4.289,4.289,0,0,0,4.277,4.391h7.454a4.346,4.346,0,0,0,4.179-4.391V5.69a.712.712,0,0,0-.2-.49" stroke="#000" stroke-width="0.3"/>
      <path id="Fill_4" data-name="Fill 4" d="M.7,1.413H5.736A.707.707,0,0,0,5.736,0H.7a.707.707,0,0,0,0,1.413" transform="translate(4.326 12.068)" fill="#0e3958" stroke="#0e3958" stroke-width="0.3"/>
      <path id="Fill_6" data-name="Fill 6" d="M.7,1.413H3.831A.707.707,0,0,0,3.831,0H.7a.707.707,0,0,0,0,1.413" transform="translate(4.326 7.402)" fill="#0e3958" stroke="#0e3958" stroke-width="0.3"/>
    </g>
  </g>
</svg>
