<svg xmlns="http://www.w3.org/2000/svg" xmlns:xlink="http://www.w3.org/1999/xlink" width="404.418" height="393.162" viewBox="0 0 404.418 393.162">
  <defs>
    <clipPath id="clip-path">
      <path id="Path_3969" data-name="Path 3969" d="M170.614,403.921l-5.649,3.262a1.689,1.689,0,0,1-1.532,0l-6.895-3.93a.464.464,0,0,1,0-.881l5.649-3.262a1.689,1.689,0,0,1,1.532,0c1.866,1.079,5.024,2.846,6.89,3.93a.464.464,0,0,1,.005.881Z" transform="translate(-156.219 -398.927)" fill="#0e3958"/>
    </clipPath>
  </defs>
  <g id="Add_to_Cart-amico" data-name="Add to Cart-amico" transform="translate(28.597 41.226)">
    <g id="freepik--Floor--inject-42" transform="translate(-28.597 -41.226)">
      <ellipse id="freepik--floor--inject-42-2" data-name="freepik--floor--inject-42" cx="202.209" cy="196.581" rx="202.209" ry="196.581" fill="#f2f2f2"/>
    </g>
    <g id="freepik--Device--inject-42" transform="translate(45.694 136.866)">
      <g id="freepik--device--inject-42-2" data-name="freepik--device--inject-42">
        <g id="freepik--Mobile--inject-42">
          <path id="Path_3845" data-name="Path 3845" d="M252.56,286.316a.637.637,0,0,0-.083-.135.959.959,0,0,0-.068-.083.469.469,0,0,0-.083-.1l-.089-.083a1.945,1.945,0,0,0-.339-.24L139.019,220.493a4.169,4.169,0,0,0-3.742,0L79.909,252.445l-.224.141-.073.063A1.376,1.376,0,0,0,79.3,253a.767.767,0,0,0-.115.24.739.739,0,0,0,0,.115.766.766,0,0,0,0,.188,1.1,1.1,0,0,0,0,.13,1.488,1.488,0,0,0,.036.146,1.137,1.137,0,0,0,.057.141,1.631,1.631,0,0,0,.667.646L192.809,319.79a3.4,3.4,0,0,0,1.11.375,4.588,4.588,0,0,0,.761.068,4.517,4.517,0,0,0,.75-.063,1.85,1.85,0,0,0,.245-.047,3.2,3.2,0,0,0,.672-.229c.073-.031.136-.068.2-.1L251.9,287.832C252.633,287.42,252.831,286.837,252.56,286.316ZM240.4,284l-3.539,2.048-47.16,27.2a2.86,2.86,0,0,1-.38.188,3.163,3.163,0,0,1-2.429,0,2.861,2.861,0,0,1-.38-.188L96.972,261.56l-4.336-2.5a1.657,1.657,0,0,1-.407-.323c-.448-.49-.307-1.115.407-1.532l50.678-29.258a3.189,3.189,0,0,1,1.965-.547,1.807,1.807,0,0,1,.485.13,1.565,1.565,0,0,1,.25.12L240.4,282.146a1.074,1.074,0,0,1,0,1.855Z" transform="translate(-78.043 -220.049)" fill="#455a64"/>
          <path id="Path_3846" data-name="Path 3846" d="M78.647,282.49a4.2,4.2,0,0,0-1.647,3.1v2.47a4.133,4.133,0,0,0,1.871,3.247L191.75,356.485a3.549,3.549,0,0,0,1.376.422c.167,0,.328.026.521.031h0v-6.806h0a6.066,6.066,0,0,1-.761-.063,3.445,3.445,0,0,1-1.115-.386L78.866,284.5C77.912,283.954,77.834,283.084,78.647,282.49Z" transform="translate(-77 -249.948)" fill="#37474f"/>
          <path id="Path_3847" data-name="Path 3847" d="M347.274,371.952a7.531,7.531,0,0,0-6.681,0,2.7,2.7,0,0,0-1,.912c-.6,1.042.521,1.824,1,2.116a7.531,7.531,0,0,0,6.681,0,2.825,2.825,0,0,0,1-.912C348.874,373.026,347.769,372.244,347.274,371.952Z" transform="translate(-202.656 -292.412)" fill="#0e3958"/>
          <path id="Path_3848" data-name="Path 3848" d="M140.359,256.021a.558.558,0,0,0,0-1.042,2.022,2.022,0,0,0-1.829,0,.558.558,0,0,0,0,1.042A2.022,2.022,0,0,0,140.359,256.021Z" transform="translate(-106.291 -236.67)" fill="#263238"/>
          <path id="Path_3849" data-name="Path 3849" d="M135.1,265.742a.521.521,0,0,0,0-.938,1.819,1.819,0,0,0-1.626,0,.521.521,0,0,0,0,.938A1.787,1.787,0,0,0,135.1,265.742Z" transform="translate(-103.899 -241.388)" fill="#263238"/>
          <path id="Path_3850" data-name="Path 3850" d="M140.217,257.884l9.089-5.248c.521-.287.521-.74.052-1.011a1.928,1.928,0,0,0-1.746.036l-9.089,5.243c-.5.292-.521.74-.052,1.011A1.928,1.928,0,0,0,140.217,257.884Z" transform="translate(-106.274 -235.077)" fill="#263238"/>
          <path id="Path_3851" data-name="Path 3851" d="M358.264,346.29c.771.6.688,1.449-.25,1.991l-55.353,31.958a3.763,3.763,0,0,1-1.871.443v6.8a3.8,3.8,0,0,0,1.866-.448l55.353-31.953a4.122,4.122,0,0,0,1.871-3.242v-2.476A4.2,4.2,0,0,0,358.264,346.29Z" transform="translate(-184.159 -280.498)" fill="#263238"/>
          <path id="Path_3852" data-name="Path 3852" d="M118.166,312.442a2.085,2.085,0,0,1,.969,1.605.594.594,0,0,1-.271.563c-.115.068-.552.328-.678.4a.714.714,0,0,1-.7-.078l-12.586-7.3a2.085,2.085,0,0,1-.964-1.605.625.625,0,0,1,.245-.552l.7-.406a.714.714,0,0,1,.7.078Z" transform="translate(-89.898 -260.732)" fill="#455a64"/>
          <path id="Path_3853" data-name="Path 3853" d="M117.49,313.2,104.9,305.932c-.521-.308-.964-.089-.964.49a2.085,2.085,0,0,0,.964,1.605l12.586,7.3c.521.307.969.089.969-.49A2.085,2.085,0,0,0,117.49,313.2Z" transform="translate(-89.9 -261.106)" fill="#263238"/>
          <path id="Path_3854" data-name="Path 3854" d="M91.949,297.328a2.085,2.085,0,0,1,.969,1.61.61.61,0,0,1-.266.563c-.12.063-.558.328-.678.4a.714.714,0,0,1-.7-.083l-5.936-3.424a2.085,2.085,0,0,1-.964-1.605.6.6,0,0,1,.245-.552c.115-.078.573-.339.7-.406a.7.7,0,0,1,.7.078Z" transform="translate(-80.53 -255.347)" fill="#455a64"/>
          <path id="Path_3855" data-name="Path 3855" d="M91.28,298.076l-5.936-3.424c-.521-.307-.964-.089-.964.49a2.085,2.085,0,0,0,.964,1.605l5.936,3.424c.521.307.964.089.964-.49A2.085,2.085,0,0,0,91.28,298.076Z" transform="translate(-80.534 -255.705)" fill="#263238"/>
        </g>
        <g id="freepik--Window--inject-42" transform="translate(13.935 7.347)">
          <path id="Path_3857" data-name="Path 3857" d="M252.161,290.726l-3.539,2.043-47.16,27.21a3.675,3.675,0,0,1-.38.188,3.163,3.163,0,0,1-2.429,0,3.675,3.675,0,0,1-.38-.188l-89.541-51.694-4.331-2.5a1.532,1.532,0,0,1-.407-.318c-.448-.49-.307-1.121.407-1.537l50.678-29.253a3.189,3.189,0,0,1,1.965-.521,1.808,1.808,0,0,1,.485.13,1.564,1.564,0,0,1,.25.12L252.161,288.9a1.074,1.074,0,0,1,0,1.829Z" transform="translate(-103.737 -234.147)" fill="#fff" opacity="0.8"/>
          <path id="Path_3858" data-name="Path 3858" d="M124.251,286.648a.25.25,0,0,1-.073-.026l-.245-.146-.6.349a.094.094,0,0,1-.1,0l-.089-.047-.042-.031a.224.224,0,0,1,0-.036l-.25-.881a.119.119,0,0,1,0-.036.089.089,0,0,1,.031-.031l.083-.047a.146.146,0,0,1,.078,0,.193.193,0,0,1,.078.026l.865.521.135-.073a.094.094,0,0,1,.068,0,.157.157,0,0,1,.078.026l.057.031c.026,0,.042.031.042.042s0,.026-.036.042l-.13.078.25.141a.1.1,0,0,1,.042.042s0,.026-.042.042l-.1.063A.193.193,0,0,1,124.251,286.648Zm-.521-.313-.615-.36.182.61Z" transform="translate(-112.888 -258.837)" fill="#455a64"/>
          <path id="Path_3859" data-name="Path 3859" d="M125.565,285.406a1.668,1.668,0,0,1-.75-.229c-.245-.146-.38-.287-.4-.433s.083-.281.292-.406a1.783,1.783,0,0,1,.271-.12,1.446,1.446,0,0,1,.276-.057h.042l.052.1h-.036a1.011,1.011,0,0,0-.391.125c-.141.083-.208.177-.2.281s.115.2.307.313a1.214,1.214,0,0,0,.521.182.86.86,0,0,0,.464-.109l.135-.094a.381.381,0,0,0,.078-.089l-.407-.235-.25.141a.1.1,0,0,1-.073,0,.156.156,0,0,1-.073-.026l-.057-.031s-.042-.031-.042-.042,0-.026.036-.042l.4-.229a.177.177,0,0,1,.083,0,.151.151,0,0,1,.089.031l.578.334a.094.094,0,0,1,.042.031s0,0,0,.031a.672.672,0,0,1-.344.344A1.255,1.255,0,0,1,125.565,285.406Z" transform="translate(-113.64 -258.095)" fill="#455a64"/>
          <path id="Path_3860" data-name="Path 3860" d="M135.36,280.774c.193.115.193.292,0,.4a.74.74,0,0,1-.693,0c-.193-.109-.193-.287,0-.4a.771.771,0,0,1,.693,0Z" transform="translate(-118.478 -256.435)" fill="#455a64"/>
          <path id="Path_3861" data-name="Path 3861" d="M133.361,280.022c-.349.2-.459.5-.323.75a.224.224,0,0,0,.208.078h0c.115,0,.2-.078.162-.141-.1-.182,0-.386.224-.521a1.381,1.381,0,0,1,.912-.13c.115,0,.229,0,.245-.094h0c0-.057-.047-.1-.135-.125A2.085,2.085,0,0,0,133.361,280.022Z" transform="translate(-117.741 -256.011)" fill="#455a64"/>
          <path id="Path_3862" data-name="Path 3862" d="M132.081,279.284c-.521.3-.709.719-.558,1.11,0,.057.109.094.208.089h0c.115,0,.188-.073.162-.136-.12-.318.031-.662.453-.907a2.648,2.648,0,0,1,1.563-.266c.115,0,.224,0,.235-.094h0c0-.057-.057-.109-.156-.12A3.168,3.168,0,0,0,132.081,279.284Z" transform="translate(-117.018 -255.59)" fill="#455a64"/>
          <path id="Path_3863" data-name="Path 3863" d="M152.257,269.415a.109.109,0,0,1-.057,0v-.036l.1-.521v-.036l.031-.031.182-.1a.1.1,0,0,1,.057,0,.11.11,0,0,1,.063,0l1.491.86a.031.031,0,0,1,0,.031.036.036,0,0,1,0,.036l-.188.109a.125.125,0,0,1-.063,0,.11.11,0,0,1-.063,0l-1.136-.657-.063.3-.031.031a.14.14,0,0,1-.068,0Z" transform="translate(-126.943 -250.683)" fill="#455a64"/>
          <path id="Path_3864" data-name="Path 3864" d="M154.489,268.125a.11.11,0,0,1-.063,0,.047.047,0,0,1,0-.036l.109-.521a.1.1,0,0,1,0-.036l.026-.031.182-.1a.109.109,0,0,1,.063,0,.125.125,0,0,1,.063,0l1.485.86v.036a.037.037,0,0,1,0,.031l-.188.109a.109.109,0,0,1-.063,0h-.063l-1.136-.657-.068.339a.073.073,0,0,1-.036.031.113.113,0,0,1-.063,0Z" transform="translate(-128.008 -250.066)" fill="#455a64"/>
          <path id="Path_3865" data-name="Path 3865" d="M157.15,267a.14.14,0,0,1,.063,0,.109.109,0,0,1,.063,0l.229.13a.031.031,0,0,1,0,.031.042.042,0,0,1,0,.036l-.214.125h-.063a.11.11,0,0,1-.063,0l-.229-.13a.042.042,0,0,1,0-.036.047.047,0,0,1,0-.036Zm.808.464a.135.135,0,0,1,.125,0l.224.13s.026,0,.026.036a.052.052,0,0,1-.026.036l-.214.12a.13.13,0,0,1-.125,0l-.224-.13s-.026,0-.026-.036a.036.036,0,0,1,.026-.031Z" transform="translate(-129.209 -249.874)" fill="#455a64"/>
          <path id="Path_3866" data-name="Path 3866" d="M160.438,266.047a.136.136,0,0,1-.125,0l-.276-.156-.714.412h-.063a.115.115,0,0,1-.063,0l-.162-.094c-.026,0-.036-.026-.042-.042a.088.088,0,0,1,0-.052l-.177-.912a.078.078,0,0,1,.036-.089l.177-.1h.12l.922.521.2-.115h.125l.162.1a.036.036,0,0,1,.026.031.041.041,0,0,1-.026.036l-.2.115.281.162s.026,0,0,.036a.042.042,0,0,1,0,.036Zm-.693-.323-.49-.287.1.521Z" transform="translate(-130.11 -248.925)" fill="#455a64"/>
          <path id="Path_3867" data-name="Path 3867" d="M160.727,263.659a.052.052,0,0,1,0-.036v-.036l.865-.521a.13.13,0,0,1,.125,0l.162.094s.026,0,.026.036,0,.026-.026.036l-.646.37.271.188a.381.381,0,0,1,.094-.089l.094-.063a1.286,1.286,0,0,1,.276-.115,1.109,1.109,0,0,1,.292-.052,1.087,1.087,0,0,1,.292,0,1.041,1.041,0,0,1,.276.1.521.521,0,0,1,.2.177.234.234,0,0,1,.042.172.276.276,0,0,1-.089.167,1.141,1.141,0,0,1-.208.156,1.733,1.733,0,0,1-.307.135,1.514,1.514,0,0,1-.287.052,1.394,1.394,0,0,1-.261,0,.862.862,0,0,1-.214-.073s-.026,0-.026-.036,0-.026.026-.036l.188-.109h.12a.64.64,0,0,0,.13.026h.125l.115-.036.1-.052c.089-.052.135-.1.141-.167s-.031-.109-.115-.156a.422.422,0,0,0-.25-.052.6.6,0,0,0-.287.078.764.764,0,0,0-.1.068.3.3,0,0,0-.042.052.1.1,0,0,1,0,.042.1.1,0,0,1-.042.037l-.214.125h-.12Z" transform="translate(-131.025 -247.987)" fill="#455a64"/>
          <path id="Path_3868" data-name="Path 3868" d="M112.759,294.446l-.479-.276.636-.37.479.276Z" transform="translate(-107.828 -262.711)" fill="#455a64"/>
          <path id="Path_3869" data-name="Path 3869" d="M114.159,293.132l-.959-.552.636-.37.959.552Z" transform="translate(-108.268 -261.95)" fill="#455a64"/>
          <path id="Path_3870" data-name="Path 3870" d="M115.558,291.819l-1.438-.834.636-.365,1.444.829Z" transform="translate(-108.709 -261.188)" fill="#455a64"/>
          <path id="Path_3871" data-name="Path 3871" d="M116.958,290.5l-1.918-1.11.641-.37,1.913,1.11Z" transform="translate(-109.15 -260.422)" fill="#455a64"/>
          <path id="Path_3872" data-name="Path 3872" d="M199.27,240.375a.714.714,0,0,0-.375.057l-2.392,1.376c-.156.089-.115.255.089.375l.876.521a1.042,1.042,0,0,0,.422.125.742.742,0,0,0,.188,0,.52.52,0,0,0,.188-.052l2.392-1.376c.151-.094.115-.255-.094-.375l-.87-.521A1.042,1.042,0,0,0,199.27,240.375Zm-1.407,2.345a.406.406,0,0,1-.177-.063l-.876-.521c-.151-.089-.182-.219-.068-.287l2.392-1.376a.276.276,0,0,1,.1-.031h.057a.422.422,0,0,1,.182.063l.87.521c.151.089.182.219.073.281l-2.392,1.381a.333.333,0,0,1-.162.031Z" transform="translate(-148.111 -237.127)" fill="#455a64"/>
          <path id="Path_3873" data-name="Path 3873" d="M197.906,242.92l1.042.594-.375.219a.23.23,0,0,1-.13,0l-.766-.443c-.109-.063-.135-.162-.052-.214Z" transform="translate(-148.671 -238.348)" fill="#455a64"/>
          <path id="Path_3874" data-name="Path 3874" d="M198.55,242.491l.448-.261,1.032.594-.453.261Z" transform="translate(-149.137 -238.017)" fill="#455a64"/>
          <path id="Path_3875" data-name="Path 3875" d="M199.75,241.8l.443-.261,1.037.6-.448.261Z" transform="translate(-149.712 -237.687)" fill="#455a64"/>
          <path id="Path_3876" data-name="Path 3876" d="M201.446,240.921l.745.433c.136.078.109.193-.078.3l-.151.089-1.042-.6.36-.2A.213.213,0,0,1,201.446,240.921Z" transform="translate(-150.272 -237.386)" fill="#455a64"/>
          <path id="Path_3877" data-name="Path 3877" d="M202.78,240.517a.641.641,0,0,1,.443.12l.162.094c.177.1.276.219.208.261l-.109.073-.823-.474Z" transform="translate(-151.105 -237.196)" fill="#455a64"/>
          <path id="Path_3878" data-name="Path 3878" d="M190.21,246.62l1.855-1.61.98,1.392-1.282-.349Z" transform="translate(-145.144 -239.349)" fill="#455a64"/>
        </g>
        <g id="freepik--Button--inject-42" transform="translate(98.479 54.631)">
          <path id="Path_3879" data-name="Path 3879" d="M266,352.588v.459a2.512,2.512,0,0,0,1.141,1.975l8.943,5.159a2.517,2.517,0,0,0,2.283,0l44.075-25.459a2.528,2.528,0,0,0,1.141-1.98v-.453a2.528,2.528,0,0,0-1.141-1.98l-8.943-5.159a2.517,2.517,0,0,0-2.283,0l-44.075,25.464A2.528,2.528,0,0,0,266,352.588Z" transform="translate(-265.979 -324.875)" fill="#0e3958"/>
          <path id="Path_3880" data-name="Path 3880" d="M332.867,335.5c.474.36.422.886-.151,1.214l-44.075,25.464a2.4,2.4,0,0,1-1.141.276v3.085a2.314,2.314,0,0,0,1.147-.271l44.07-25.459a2.543,2.543,0,0,0,1.141-1.98v-.453A2.538,2.538,0,0,0,332.867,335.5Z" transform="translate(-276.274 -329.963)" opacity="0.15"/>
          <path id="Path_3881" data-name="Path 3881" d="M266.929,374.49a2.554,2.554,0,0,0-.969,1.855v.459a2.507,2.507,0,0,0,1.147,1.975l8.938,5.159a2.283,2.283,0,0,0,1.141.271v-3.085a2.386,2.386,0,0,1-1.141-.276l-8.943-5.16C266.533,375.366,266.5,374.855,266.929,374.49Z" transform="translate(-265.96 -348.633)" opacity="0.3"/>
          <path id="Path_3882" data-name="Path 3882" d="M292.286,368.193a.459.459,0,0,1,.229-.063,1.075,1.075,0,0,1,.2.026l4.69,1.313.1.036a.083.083,0,0,1,.047.073.078.078,0,0,1-.047.068l-.7.4a.412.412,0,0,1-.2.063.416.416,0,0,1-.151,0l-.615-.177-1.47.85.307.354a.125.125,0,0,1,.031.089c0,.036-.036.073-.109.115l-.7.4a.214.214,0,0,1-.12.031.234.234,0,0,1-.125-.031.146.146,0,0,1-.057-.057l-2.283-2.71a.2.2,0,0,1-.042-.115c0-.047.036-.089.109-.13Zm1.522,1.913.9-.521-1.777-.521Z" transform="translate(-278.084 -345.587)" fill="#455a64"/>
          <path id="Path_3883" data-name="Path 3883" d="M298.6,363.9a3.479,3.479,0,0,1,.813-.339,4.09,4.09,0,0,1,.86-.13,3.29,3.29,0,0,1,.849.078,3.125,3.125,0,0,1,.771.271l.214.12.188.109.182.1.2.12a1.564,1.564,0,0,1,.485.448.792.792,0,0,1,.136.479.933.933,0,0,1-.219.5,2.027,2.027,0,0,1-.578.464l-1.491.86a.271.271,0,0,1-.151.036.255.255,0,0,1-.146-.036l-3.575-2.059c-.042-.026-.063-.052-.063-.089a.094.094,0,0,1,.063-.083Zm2.246.459a1.371,1.371,0,0,0-1.386.068l-.563.328,2.085,1.214.589-.344c.464-.266.5-.521.089-.787l-.214-.13-.2-.115-.193-.109Z" transform="translate(-280.857 -343.334)" fill="#455a64"/>
          <path id="Path_3884" data-name="Path 3884" d="M306.267,359.468a3.482,3.482,0,0,1,.813-.339,4.092,4.092,0,0,1,.865-.13,3.513,3.513,0,0,1,.844.078,3,3,0,0,1,.771.271l.219.12.182.109.182.1.2.12a1.607,1.607,0,0,1,.479.448.761.761,0,0,1,.135.479.881.881,0,0,1-.214.5,2.083,2.083,0,0,1-.578.464l-1.5.86a.265.265,0,0,1-.146.037.271.271,0,0,1-.151-.037l-3.575-2.059a.115.115,0,0,1-.063-.089.1.1,0,0,1,.063-.083Zm2.246.459a1.371,1.371,0,0,0-1.386.068l-.563.328,2.085,1.214.594-.344c.464-.266.49-.521.089-.787l-.214-.13c-.068-.036-.136-.073-.2-.115l-.2-.109Z" transform="translate(-284.529 -341.214)" fill="#455a64"/>
          <path id="Path_3885" data-name="Path 3885" d="M316.913,352.966a.266.266,0,0,1,.146-.036.271.271,0,0,1,.151.036l.589.339a.094.094,0,0,1,.057.083.1.1,0,0,1-.057.089l-.975.532,2.835,1.636c.042,0,.063.052.063.089a.1.1,0,0,1-.063.083l-.724.417a.255.255,0,0,1-.146.036.27.27,0,0,1-.151-.036L315.8,354.6l-.975.563a.339.339,0,0,1-.151.036.3.3,0,0,1-.146-.036l-.589-.339c-.042-.026-.063-.052-.063-.089a.1.1,0,0,1,.063-.083Z" transform="translate(-288.906 -338.308)" fill="#455a64"/>
          <path id="Path_3886" data-name="Path 3886" d="M322.8,351.914a1.563,1.563,0,0,1-.448-.417.73.73,0,0,1-.141-.469.955.955,0,0,1,.214-.5,2.231,2.231,0,0,1,.6-.485,3.516,3.516,0,0,1,.839-.344,3.806,3.806,0,0,1,.855-.125,3.216,3.216,0,0,1,.813.083,3.005,3.005,0,0,1,.719.255l.521.281.474.287a1.564,1.564,0,0,1,.448.417.73.73,0,0,1,.141.469.86.86,0,0,1-.214.521,2.027,2.027,0,0,1-.6.479,3.432,3.432,0,0,1-.839.354,3.751,3.751,0,0,1-.855.12,3.219,3.219,0,0,1-.813-.083,3.093,3.093,0,0,1-.719-.255c-.162-.083-.323-.177-.521-.276Zm3.382-.849-.208-.136-.24-.146-.255-.141-.224-.115a1.323,1.323,0,0,0-.313-.115,1.431,1.431,0,0,0-.334-.042,1.372,1.372,0,0,0-.349.047,1.534,1.534,0,0,0-.349.141.777.777,0,0,0-.245.2.333.333,0,0,0-.078.2.323.323,0,0,0,.068.193.745.745,0,0,0,.2.177,1.862,1.862,0,0,0,.2.13c.078.047.156.1.245.146l.25.141a2.523,2.523,0,0,0,.235.12,1.516,1.516,0,0,0,.651.156,1.282,1.282,0,0,0,.693-.193c.229-.13.333-.261.323-.4A.521.521,0,0,0,326.18,351.064Z" transform="translate(-292.894 -336.704)" fill="#455a64"/>
          <path id="Path_3887" data-name="Path 3887" d="M333.711,345.635l.193.12.261.151.266.156.214.109a1.3,1.3,0,0,0,.292.109,1.347,1.347,0,0,0,.328.052,1.636,1.636,0,0,0,.349-.042,1.29,1.29,0,0,0,.37-.151.9.9,0,0,0,.261-.2.454.454,0,0,0,.094-.177.245.245,0,0,0,0-.151.523.523,0,0,0-.083-.12.3.3,0,0,1-.063-.109.273.273,0,0,1,.094-.094l.724-.417a.286.286,0,0,1,.24,0,1.006,1.006,0,0,1,.4.386.672.672,0,0,1,.068.459,1.152,1.152,0,0,1-.255.485,2.116,2.116,0,0,1-.573.453,3.347,3.347,0,0,1-.829.339,3.5,3.5,0,0,1-.855.125,3.232,3.232,0,0,1-.818-.083,2.689,2.689,0,0,1-.714-.255c-.162-.078-.323-.172-.521-.271a4.389,4.389,0,0,1-.485-.3,1.427,1.427,0,0,1-.448-.406.782.782,0,0,1-.136-.474.9.9,0,0,1,.208-.5,2,2,0,0,1,.594-.48,3.392,3.392,0,0,1,.787-.328,4.329,4.329,0,0,1,.834-.151,3.358,3.358,0,0,1,.8.042,2.052,2.052,0,0,1,.667.224.089.089,0,0,1,.052.073.073.073,0,0,1-.052.068l-.724.422a.323.323,0,0,1-.162.052,1.236,1.236,0,0,1-.182-.036,1.121,1.121,0,0,0-.208-.047,1.046,1.046,0,0,0-.261,0,1.813,1.813,0,0,0-.307.052,1.562,1.562,0,0,0-.354.156.76.76,0,0,0-.261.214.323.323,0,0,0-.073.2.333.333,0,0,0,.083.193A1.237,1.237,0,0,0,333.711,345.635Z" transform="translate(-297.62 -333.968)" fill="#455a64"/>
          <path id="Path_3888" data-name="Path 3888" d="M341.011,340.063a.459.459,0,0,1,.229-.063,1.073,1.073,0,0,1,.2.026l4.69,1.313.1.036c.036,0,.052.042.052.073s0,.047-.052.068l-.693.4a.448.448,0,0,1-.208.063.52.52,0,0,1-.146,0l-.615-.177-1.475.85.308.354a.125.125,0,0,1,.031.089c0,.036-.036.073-.109.115l-.7.406a.287.287,0,0,1-.24,0,.178.178,0,0,1-.063-.063l-2.277-2.71a.172.172,0,0,1-.042-.115c0-.047.031-.089.1-.136Zm1.522,1.913.9-.521-1.777-.521Z" transform="translate(-301.418 -332.117)" fill="#455a64"/>
          <path id="Path_3889" data-name="Path 3889" d="M347.353,335.714a4.092,4.092,0,0,1,.73-.328,3.059,3.059,0,0,1,.719-.151,2.492,2.492,0,0,1,.709.052,2.334,2.334,0,0,1,.667.261,1.126,1.126,0,0,1,.521.521.521.521,0,0,1-.068.521l2,.365a.194.194,0,0,1,.078.026c.036,0,.052.042.052.073s0,.047-.052.068l-.75.433a.344.344,0,0,1-.208.063h-.172l-1.8-.328-.521.292,1.183.683c.042,0,.063.052.063.089a.1.1,0,0,1-.063.083l-.724.417a.266.266,0,0,1-.146.036.271.271,0,0,1-.151-.036l-3.575-2.059a.1.1,0,0,1-.057-.089.1.1,0,0,1,.057-.089Zm1.042,1.329.631-.37a.693.693,0,0,0,.3-.271c.042-.094,0-.188-.167-.276a.709.709,0,0,0-.474-.094,1.292,1.292,0,0,0-.474.167l-.625.365Z" transform="translate(-304.186 -329.833)" fill="#455a64"/>
          <path id="Path_3890" data-name="Path 3890" d="M355.608,330.587a.334.334,0,0,1,.3,0l.584.339a.1.1,0,0,1,.063.083c0,.036,0,.063-.063.089l-.975.563,2.84,1.636a.1.1,0,0,1,.057.089.094.094,0,0,1-.057.083l-.724.422a.38.38,0,0,1-.3,0l-2.835-1.642-.975.563a.318.318,0,0,1-.146.036.322.322,0,0,1-.151-.036l-.589-.339a.11.11,0,0,1-.057-.089.1.1,0,0,1,.057-.083Z" transform="translate(-307.437 -327.593)" fill="#455a64"/>
          <path id="Path_3891" data-name="Path 3891" d="M279.034,373.443c-1.4.808-1.4,2.116,0,2.918a5.587,5.587,0,0,0,5.061,0c1.4-.8,1.4-2.111,0-2.918A5.587,5.587,0,0,0,279.034,373.443Zm4.169.954-.938.521.938.521a.188.188,0,0,1,0,.36.683.683,0,0,1-.62,0l-.943-.521-.938.521a.683.683,0,0,1-.62,0,.188.188,0,0,1,0-.36l.938-.521-.938-.521a.188.188,0,0,1,0-.36.683.683,0,0,1,.62,0l.938.521.943-.521a.683.683,0,0,1,.62,0,.189.189,0,1,1-.042.375Z" transform="translate(-271.717 -347.841)" fill="#455a64"/>
        </g>
      </g>
    </g>
    <g id="freepik--Cart--inject-42" transform="translate(89.993 105.247)">
      <g id="freepik--cart--inject-42-2" data-name="freepik--cart--inject-42" transform="translate(0 0)">
        <path id="Path_3892" data-name="Path 3892" d="M290.472,302.582a7.744,7.744,0,0,0-3.471-6.1,2.4,2.4,0,0,0-2.569-.2h0l-2.371,1.334,4.977,8.584,2.35-1.334h0A2.465,2.465,0,0,0,290.472,302.582Z" transform="translate(-219.489 -224.798)" fill="#37474f"/>
        <path id="Path_3893" data-name="Path 3893" d="M283.573,299.161a7.771,7.771,0,0,1,3.471,6.1c0,2.241-1.595,3.127-3.523,2.006a7.77,7.77,0,0,1-3.471-6.1C280.066,298.926,281.645,298.03,283.573,299.161Z" transform="translate(-218.527 -226.077)" fill="#455a64"/>
        <path id="Path_3894" data-name="Path 3894" d="M284.49,305.106c0-.876.521-1.277,1.193-.891a2.83,2.83,0,0,1,1.173,2.277c0,.876-.521,1.272-1.193.891A2.856,2.856,0,0,1,284.49,305.106Z" transform="translate(-220.653 -228.661)" fill="#263238"/>
        <path id="Path_3895" data-name="Path 3895" d="M287.047,305.942a6.434,6.434,0,0,0-.479-2.345l-6.019-3.5a3.012,3.012,0,0,0-.49,1.751v.083l6.984,4.055A.405.405,0,0,0,287.047,305.942Z" transform="translate(-218.53 -226.761)" opacity="0.15"/>
        <path id="Path_3896" data-name="Path 3896" d="M211.817,292.96a7.51,7.51,0,0,1-3.711-.667l-32.833-18.923c-1.986-1-4.216-3.6-4.357-6.056l-1.006-23.405,1.829-.1,1.011,23.411c.094,1.668,1.84,3.763,3.341,4.513l32.859,18.929a6.311,6.311,0,0,0,5.514-.318l21.889-12.623c.521-.344.829-.756.808-1.1s-.349-.693-.907-.975l-35.173-20.419c-1.98-1-4.2-3.6-4.341-6.056l-.49-12.982,1.829-.1.49,12.977c.094,1.678,1.84,3.768,3.335,4.518L237.077,274a2.832,2.832,0,0,1,.281,5.248L215.47,291.871a7.594,7.594,0,0,1-3.653,1.089Z" transform="translate(-165.788 -196.106)" fill="#455a64"/>
        <path id="Path_3897" data-name="Path 3897" d="M231.272,338.16a7.744,7.744,0,0,0-3.471-6.1,2.381,2.381,0,0,0-2.564-.2h0L222.86,333.2l4.977,8.584,2.35-1.334h0A2.465,2.465,0,0,0,231.272,338.16Z" transform="translate(-191.142 -241.833)" fill="#37474f"/>
        <path id="Path_3898" data-name="Path 3898" d="M224.358,334.737a7.745,7.745,0,0,1,3.471,6.1c0,2.236-1.59,3.127-3.523,2a7.755,7.755,0,0,1-3.466-6.1C220.856,334.508,222.43,333.6,224.358,334.737Z" transform="translate(-190.175 -243.111)" fill="#455a64"/>
        <path id="Path_3899" data-name="Path 3899" d="M225.27,340.686c0-.876.521-1.277,1.193-.891a2.819,2.819,0,0,1,1.173,2.277c0,.87-.521,1.272-1.188.886A2.835,2.835,0,0,1,225.27,340.686Z" transform="translate(-192.296 -245.699)" fill="#263238"/>
        <path id="Path_3900" data-name="Path 3900" d="M184.7,311.3a7.744,7.744,0,0,0-3.455-6.1,2.4,2.4,0,0,0-2.569-.2h0l-2.376,1.329,4.961,8.594,2.356-1.334h0A2.45,2.45,0,0,0,184.7,311.3Z" transform="translate(-168.847 -228.971)" fill="#37474f"/>
        <path id="Path_3901" data-name="Path 3901" d="M177.813,307.876a7.755,7.755,0,0,1,3.461,6.082c0,2.236-1.6,3.127-3.528,2a7.745,7.745,0,0,1-3.455-6.1C174.306,307.631,175.885,306.74,177.813,307.876Z" transform="translate(-167.885 -230.248)" fill="#455a64"/>
        <path id="Path_3902" data-name="Path 3902" d="M178.72,313.811c0-.87.521-1.272,1.193-.886a2.84,2.84,0,0,1,1.173,2.277c0,.876-.521,1.272-1.2.891a2.861,2.861,0,0,1-1.167-2.283Z" transform="translate(-170.006 -232.832)" fill="#263238"/>
        <path id="Path_3903" data-name="Path 3903" d="M162.2,178.819a6.1,6.1,0,0,1,2.34-6.494l21.842-12.346a3.09,3.09,0,0,1,4.857,1.871l1.517,4.915-1.5.876-1.631-4.967a1.652,1.652,0,0,0-2.606-.912l-21.269,12.013a4.008,4.008,0,0,0-1.527,4.169l1.282,4.717-1.788,1.042Z" transform="translate(-162 -159.379)" fill="#455a64"/>
        <path id="Path_3904" data-name="Path 3904" d="M200.221,242.12,170.88,259.063l42.881,24.755L243.1,266.875Z" transform="translate(-166.252 -198.998)" fill="#0e3958"/>
        <path id="Path_3905" data-name="Path 3905" d="M200.221,242.12,170.88,259.063l42.881,24.755L243.1,266.875Z" transform="translate(-166.252 -198.998)" opacity="0.5"/>
        <path id="Path_3906" data-name="Path 3906" d="M165.29,190.524l29.039-16.964,3.216,35.731L168.2,226.234Z" transform="translate(-163.575 -166.169)" fill="#0e3958"/>
        <path id="Path_3907" data-name="Path 3907" d="M165.29,190.524l29.039-16.964,3.216,35.731L168.2,226.234Z" transform="translate(-163.575 -166.169)" opacity="0.35"/>
        <path id="Path_3908" data-name="Path 3908" d="M221,173.56l3.216,35.731L267.1,234.046l6.775-29.972Zm14.994,34.355a2.465,2.465,0,0,1-3.075-1.595l-7.088-18.392a2.314,2.314,0,1,1,4.289-1.631l7.088,18.392A2.46,2.46,0,0,1,236,207.915Zm13.389,6.3a2.455,2.455,0,0,1-3.075-1.59l-7.067-18.392a2.314,2.314,0,1,1,4.284-1.652l7.088,18.392a2.455,2.455,0,0,1-1.225,3.242Zm13.389,6.3a2.455,2.455,0,0,1-3.075-1.564l-7.083-18.392a2.309,2.309,0,1,1,4.279-1.652L263.98,217.3a2.455,2.455,0,0,1-1.2,3.216Z" transform="translate(-190.251 -166.169)" fill="#0e3958"/>
        <path id="Path_3909" data-name="Path 3909" d="M221,173.56l3.216,35.731L267.1,234.046l6.775-29.972Zm14.994,34.355a2.465,2.465,0,0,1-3.075-1.595l-7.088-18.392a2.314,2.314,0,1,1,4.289-1.631l7.088,18.392A2.46,2.46,0,0,1,236,207.915Zm13.389,6.3a2.455,2.455,0,0,1-3.075-1.59l-7.067-18.392a2.314,2.314,0,1,1,4.284-1.652l7.088,18.392a2.455,2.455,0,0,1-1.225,3.242Zm13.389,6.3a2.455,2.455,0,0,1-3.075-1.564l-7.083-18.392a2.309,2.309,0,1,1,4.279-1.652L263.98,217.3a2.455,2.455,0,0,1-1.2,3.216Z" transform="translate(-190.251 -166.169)" opacity="0.23"/>
        <path id="Path_3910" data-name="Path 3910" d="M165.29,206.11l2.913,35.71,42.881,24.755,6.775-29.967Zm16.927,35.152a2.465,2.465,0,0,1-3.075-1.595l-7.083-18.392a2.309,2.309,0,1,1,4.279-1.647l7.088,18.387a2.46,2.46,0,0,1-1.209,3.247Zm13.389,6.3a2.455,2.455,0,0,1-3.075-1.59l-7.067-18.392a2.314,2.314,0,1,1,4.284-1.652l7.083,18.392a2.455,2.455,0,0,1-1.225,3.242Zm13.389,6.3a2.449,2.449,0,0,1-3.07-1.59l-7.088-18.392a2.314,2.314,0,1,1,4.284-1.652l7.083,18.392a2.455,2.455,0,0,1-1.209,3.242Z" transform="translate(-163.575 -181.755)" fill="#0e3958"/>
        <g id="Group_9203" data-name="Group 9203" transform="translate(1.715 24.355)" opacity="0.15">
          <path id="Path_3911" data-name="Path 3911" d="M165.29,206.11l2.913,35.71,42.881,24.755,6.775-29.967Zm16.927,35.152a2.465,2.465,0,0,1-3.075-1.595l-7.083-18.392a2.309,2.309,0,1,1,4.279-1.647l7.088,18.387a2.46,2.46,0,0,1-1.209,3.247Zm13.389,6.3a2.455,2.455,0,0,1-3.075-1.59l-7.067-18.392a2.314,2.314,0,1,1,4.284-1.652l7.083,18.392a2.455,2.455,0,0,1-1.225,3.242Zm13.389,6.3a2.449,2.449,0,0,1-3.07-1.59l-7.088-18.392a2.314,2.314,0,1,1,4.284-1.652l7.083,18.392a2.455,2.455,0,0,1-1.209,3.242Z" transform="translate(-165.29 -206.11)"/>
        </g>
        <path id="Path_3912" data-name="Path 3912" d="M259.93,249.063l29.341-16.943-6.77,29.972L253.16,279.03Z" transform="translate(-205.651 -194.21)" fill="#0e3958"/>
        <path id="Path_3913" data-name="Path 3913" d="M259.93,249.063l29.341-16.943-6.77,29.972L253.16,279.03Z" transform="translate(-205.651 -194.21)" opacity="0.4"/>
      </g>
    </g>
    <g id="freepik--Arrow--inject-42" transform="translate(134.677 85.938)">
      <g id="freepik--arrow--inject-42-2" data-name="freepik--arrow--inject-42">
        <path id="Path_3914" data-name="Path 3914" d="M267.9,131.789l-3.388,1.986.01-10.262-2.053-1.183-9.3,5.368-.016,12.659-5.42,3.07,12.133,7.87,10.085-18.324Z" transform="translate(-247.74 -122.33)" fill="#37474f"/>
        <path id="Path_3915" data-name="Path 3915" d="M257.116,129.968l-.016,12.659-5.42,3.075,10.079,6.681,10.085-18.324-5.446,3.2.016-12.659Z" transform="translate(-249.627 -123.417)" fill="#455a64"/>
        <path id="Path_3916" data-name="Path 3916" d="M258.156,132.63l2.053,1.183-.016,12.659-2.053-1.183Z" transform="translate(-252.72 -127.262)" fill="#263238"/>
      </g>
    </g>
    <g id="freepik--Bag--inject-42" transform="translate(88.309 46.33)">
      <g id="freepik--bag--inject-42-2" data-name="freepik--bag--inject-42">
        <path id="Path_3917" data-name="Path 3917" d="M177.57,107.709l29.383-16.964L204.5,55.4,177.57,70.952Z" transform="translate(-167.772 -50.673)" fill="#0e3958"/>
        <path id="Path_3918" data-name="Path 3918" d="M177.57,107.709l29.383-16.964L204.5,55.4,177.57,70.952Z" transform="translate(-167.772 -50.673)" fill="#fff" opacity="0.6"/>
        <path id="Path_3919" data-name="Path 3919" d="M170.818,67.054v-2.83l-7.348-1.412L190.4,47.26l2.449,4.242h4.9Z" transform="translate(-161.021 -46.775)" fill="#0e3958"/>
        <path id="Path_3920" data-name="Path 3920" d="M170.818,67.054v-2.83l-7.348-1.412L190.4,47.26l2.449,4.242h4.9Z" transform="translate(-161.021 -46.775)" fill="#fff" opacity="0.3"/>
        <path id="Path_3921" data-name="Path 3921" d="M215.15,47.26v8.485l2.449-1.412V51.5Z" transform="translate(-185.767 -46.775)" fill="#0e3958"/>
        <path id="Path_3922" data-name="Path 3922" d="M215.15,47.26v8.485l2.449-1.412V51.5Z" transform="translate(-185.767 -46.775)" opacity="0.1"/>
        <path id="Path_3923" data-name="Path 3923" d="M224.749,55.4h-4.9v2.83Z" transform="translate(-188.017 -50.673)" fill="#0e3958"/>
        <path id="Path_3924" data-name="Path 3924" d="M224.749,55.4h-4.9v2.83Z" transform="translate(-188.017 -50.673)" opacity="0.2"/>
        <path id="Path_3925" data-name="Path 3925" d="M161.219,77.1l-2.449,35.345,9.8,5.655V78.512Z" transform="translate(-158.77 -61.064)" fill="#0e3958"/>
        <path id="Path_3926" data-name="Path 3926" d="M161.219,77.1l-2.449,35.345,9.8,5.655V78.512Z" transform="translate(-158.77 -61.064)" opacity="0.1"/>
        <path id="Path_3927" data-name="Path 3927" d="M173.069,79.81l-4.9,36.758,4.9,2.83Z" transform="translate(-163.271 -62.361)" fill="#0e3958"/>
        <path id="Path_3928" data-name="Path 3928" d="M173.069,79.81l-4.9,36.758,4.9,2.83Z" transform="translate(-163.271 -62.361)" opacity="0.2"/>
        <path id="Path_3929" data-name="Path 3929" d="M168.568,150.354l-4.492-5.894-5.305.24Z" transform="translate(-158.77 -93.318)" fill="#0e3958"/>
        <path id="Path_3930" data-name="Path 3930" d="M178.71,75.084c0,.479.334.678.75.438a1.678,1.678,0,0,0,.756-1.308c0-.479-.339-.678-.756-.438A1.673,1.673,0,0,0,178.71,75.084Z" transform="translate(-168.318 -59.423)" fill="#37474f"/>
        <path id="Path_3931" data-name="Path 3931" d="M197.94,64.234c0,.479.339.678.756.433a1.662,1.662,0,0,0,.756-1.3c0-.479-.339-.678-.756-.438A1.673,1.673,0,0,0,197.94,64.234Z" transform="translate(-177.526 -54.228)" fill="#37474f"/>
        <path id="Path_3932" data-name="Path 3932" d="M179.92,61.444a.255.255,0,0,1-.25-.25V55.018c0-2.694,2.3-6.212,5.139-7.849,1.563-.912,3.075-1.089,4.112-.49a2.825,2.825,0,0,1,1.282,2.606v6.254a.255.255,0,0,1-.255.25.25.25,0,0,1-.25-.25V49.285a2.315,2.315,0,0,0-1.042-2.178c-.876-.521-2.194-.328-3.606.49-2.694,1.563-4.889,4.878-4.889,7.411v6.186A.255.255,0,0,1,179.92,61.444Z" transform="translate(-168.778 -46.33)" fill="#37474f"/>
        <path id="Path_3933" data-name="Path 3933" d="M193,83.224c0,.479.339.672.756.433a1.663,1.663,0,0,0,.756-1.3c0-.479-.339-.678-.756-.438A1.673,1.673,0,0,0,193,83.224Z" transform="translate(-175.161 -63.321)" fill="#455a64"/>
        <path id="Path_3934" data-name="Path 3934" d="M212.26,72.374c0,.479.339.672.756.433a1.662,1.662,0,0,0,.756-1.3c0-.485-.339-.678-.756-.438A1.663,1.663,0,0,0,212.26,72.374Z" transform="translate(-184.383 -58.125)" fill="#455a64"/>
        <path id="Path_3935" data-name="Path 3935" d="M194.245,69.607a.25.25,0,0,1-.245-.245V63.176c0-2.689,2.3-6.207,5.139-7.817,1.563-.912,3.075-1.089,4.112-.49a2.833,2.833,0,0,1,1.277,2.606v6.254a.25.25,0,0,1-.25.255.255.255,0,0,1-.255-.255V57.475A2.3,2.3,0,0,0,202.98,55.3c-.876-.521-2.189-.328-3.606.49-2.694,1.563-4.883,4.878-4.883,7.406v6.165a.255.255,0,0,1-.245.245Z" transform="translate(-175.639 -50.251)" fill="#455a64"/>
      </g>
    </g>
    <g id="freepik--credit-card--inject-42" transform="translate(27.252 197.484)">
      <g id="freepik--Card--inject-42">
        <path id="Path_3936" data-name="Path 3936" d="M98.7,411.525l34.1-19.69a1.605,1.605,0,0,0,.922-1.407c0-.521,0-2.418,0-2.418s-.912,1.3-.928,1.313l-25.824,14.905-8.281,4.779a4.935,4.935,0,0,1-4.487,0L42.552,379.192s-.876-1.042-.9-1.042-.047,1.782,0,2.376a1.564,1.564,0,0,0,.9,1.194L94.2,411.53a4.93,4.93,0,0,0,4.492-.005Z" transform="translate(-41.622 -356.372)" fill="#0e3958"/>
        <path id="Path_3937" data-name="Path 3937" d="M98.7,411.525l34.1-19.69a1.605,1.605,0,0,0,.922-1.407c0-.521,0-2.418,0-2.418s-.912,1.3-.928,1.313l-25.824,14.905-8.281,4.779a4.935,4.935,0,0,1-4.487,0L42.552,379.192s-.876-1.042-.9-1.042-.047,1.782,0,2.376a1.564,1.564,0,0,0,.9,1.194L94.2,411.53a4.93,4.93,0,0,0,4.492-.005Z" transform="translate(-41.622 -356.372)" opacity="0.15"/>
        <path id="Path_3938" data-name="Path 3938" d="M197.7,404.054h0v2.517l9.829-5.675a1.605,1.605,0,0,0,.922-1.407c0-.521,0-2.418,0-2.418s-.912,1.3-.928,1.313Z" transform="translate(-116.354 -365.431)" fill="#37474f"/>
        <path id="Path_3939" data-name="Path 3939" d="M132.795,369.314a.121.121,0,0,0,.047-.042c1.188-.7,1.167-1.85-.047-2.554L81.137,336.9a4.967,4.967,0,0,0-4.487,0l-34.1,19.69c-1.23.709-1.235,1.85-.047,2.559l.047.037L94.192,389a4.935,4.935,0,0,0,4.487,0l8.281-4.779Z" transform="translate(-41.615 -336.362)" fill="#0e3958"/>
        <path id="Path_3940" data-name="Path 3940" d="M146.129,374.984l9.834-5.67a.12.12,0,0,0,.047-.042c1.188-.7,1.167-1.85-.047-2.554L104.306,336.9a4.967,4.967,0,0,0-4.487,0L90,342.573Z" transform="translate(-64.783 -336.362)" fill="#455a64"/>
        <path id="Path_3941" data-name="Path 3941" d="M41.661,378.17s-.047,1.782,0,2.376a1.563,1.563,0,0,0,.9,1.183L94.21,411.54a4.753,4.753,0,0,0,2.846.521v-2.517a4.857,4.857,0,0,1-2.851-.521L42.557,379.2S41.682,378.18,41.661,378.17Z" transform="translate(-41.627 -356.381)" opacity="0.15"/>
        <path id="Path_3942" data-name="Path 3942" d="M72.774,369.9l-1-.578a.13.13,0,0,1-.073-.089.079.079,0,0,1,.052-.089.313.313,0,0,1,.151-.031.365.365,0,0,1,.156.042l.334.193,1.444-.849a.172.172,0,0,0,.1-.172c0-.073-.057-.13-.146-.188h0a.136.136,0,0,1-.078-.094.094.094,0,0,1,.057-.083.224.224,0,0,1,.167.016.3.3,0,0,1,.156.042h0a.521.521,0,0,1,.3.37.344.344,0,0,1-.208.349l-1.464.8.334.193c.047.026.073.057.073.094a.079.079,0,0,1-.052.089.272.272,0,0,1-.151,0,.291.291,0,0,1-.156-.016Z" transform="translate(-56.021 -351.489)" fill="#fff"/>
        <path id="Path_3943" data-name="Path 3943" d="M77.659,371.847l-.667-.386a.682.682,0,0,0-.318-.083.553.553,0,0,0-.3.063l-.214.12s-.031.026,0,.047,0,.031.036.047l1.418.818a.13.13,0,0,1,.073.089.083.083,0,0,1-.052.089.271.271,0,0,1-.151.031.392.392,0,0,1-.162-.047l-1.663-.959a.135.135,0,0,1-.078-.094.083.083,0,0,1,.052-.083l.433-.25a1.085,1.085,0,0,1,.6-.125,1.411,1.411,0,0,1,.641.172l.662.386a.729.729,0,0,0,.323.089.521.521,0,0,0,.3-.063l.287-.162a.177.177,0,0,0,.109-.177.292.292,0,0,0-.156-.188l-.662-.38a.709.709,0,0,0-.323-.089.553.553,0,0,0-.3.063.3.3,0,0,1-.146.031.329.329,0,0,1-.162-.047.135.135,0,0,1-.078-.089.089.089,0,0,1,.057-.089,1.042,1.042,0,0,1,.6-.125,1.334,1.334,0,0,1,.641.177l.667.386a.521.521,0,0,1,.3.37.344.344,0,0,1-.214.344l-.287.167a1.085,1.085,0,0,1-.6.125A1.37,1.37,0,0,1,77.659,371.847Z" transform="translate(-57.878 -352.685)" fill="#fff"/>
        <path id="Path_3944" data-name="Path 3944" d="M83.505,375.244l-.146.083a1.115,1.115,0,0,1-.6.12,1.391,1.391,0,0,1-.651-.2l-.667-.386a.521.521,0,0,1-.3-.37.354.354,0,0,1,.214-.349.271.271,0,0,1,.151-.026.338.338,0,0,1,.162.042.141.141,0,0,1,.073.094.078.078,0,0,1-.052.083.172.172,0,0,0-.1.177.25.25,0,0,0,.151.182l.662.386a.709.709,0,0,0,.323.089.521.521,0,0,0,.3-.063l.146-.083a.172.172,0,0,0,.1-.172.25.25,0,0,0-.151-.188l-.162-.094c-.047-.031-.073-.057-.078-.094s0-.063.052-.089a.333.333,0,0,1,.313,0l.167.094a.688.688,0,0,0,.318.089.521.521,0,0,0,.3-.063l.146-.083a.172.172,0,0,0,.1-.172.261.261,0,0,0-.151-.188l-.667-.38a.688.688,0,0,0-.318-.089.552.552,0,0,0-.3.063.266.266,0,0,1-.151.026.323.323,0,0,1-.162-.042.146.146,0,0,1-.073-.089.089.089,0,0,1,.052-.089,1.084,1.084,0,0,1,.6-.125,1.371,1.371,0,0,1,.641.177l.662.38a.521.521,0,0,1,.3.37.344.344,0,0,1-.214.349l-.141.083a.939.939,0,0,1-.3.1,2.036,2.036,0,0,1-.36,0,.292.292,0,0,1,0,.208A.522.522,0,0,1,83.505,375.244Z" transform="translate(-60.54 -354.065)" fill="#fff"/>
        <path id="Path_3945" data-name="Path 3945" d="M88.69,378.436a.323.323,0,0,1-.162-.042.141.141,0,0,1-.073-.094.083.083,0,0,1,.052-.083l.8-.464a1.324,1.324,0,0,1-.412-.146l-.667-.386a.521.521,0,0,1-.3-.37.344.344,0,0,1,.214-.344l.719-.417a.323.323,0,0,1,.151-.031.338.338,0,0,1,.162.042.141.141,0,0,1,.073.094.079.079,0,0,1-.052.089l-.719.417a.177.177,0,0,0-.109.172.276.276,0,0,0,.151.182l.667.386a.7.7,0,0,0,.318.089.521.521,0,0,0,.3-.062l.719-.417a.339.339,0,0,1,.151-.031.391.391,0,0,1,.162.042.135.135,0,0,1,.073.094.083.083,0,0,1-.052.089l-2.017,1.167a.267.267,0,0,1-.151.026Z" transform="translate(-63.791 -355.371)" fill="#fff"/>
        <path id="Path_3946" data-name="Path 3946" d="M97.993,382.548v.047a.094.094,0,0,0,.036.047l.917.521a.521.521,0,0,1,.3.37.349.349,0,0,1-.214.349l-.287.167a1.131,1.131,0,0,1-.6.12,1.386,1.386,0,0,1-.636-.172l-.667-.386a.521.521,0,0,1-.3-.37.349.349,0,0,1,.214-.349.324.324,0,0,1,.151-.031.418.418,0,0,1,.162.047.141.141,0,0,1,.073.094.083.083,0,0,1-.052.083.172.172,0,0,0-.109.177.276.276,0,0,0,.151.182l.667.386a.683.683,0,0,0,.318.083.521.521,0,0,0,.3-.057l.287-.167a.177.177,0,0,0,.109-.177.276.276,0,0,0-.151-.182l-1-.578a.276.276,0,0,1-.151-.182.167.167,0,0,1,.109-.172l.719-.417a.235.235,0,0,1,.151-.031.318.318,0,0,1,.156.042l1.668.959a.141.141,0,0,1,.073.094.079.079,0,0,1-.052.089.312.312,0,0,1-.151.031.364.364,0,0,1-.156-.047l-1.418-.818H98.53a.125.125,0,0,0-.078,0Z" transform="translate(-67.914 -358.19)" fill="#fff"/>
        <path id="Path_3947" data-name="Path 3947" d="M103.339,385.879l.667.386a.521.521,0,0,1,.3.37.349.349,0,0,1-.214.349l-.287.167a1.121,1.121,0,0,1-.6.12,1.37,1.37,0,0,1-.641-.177l-.662-.38a.521.521,0,0,1-.3-.37.344.344,0,0,1,.208-.349l1.157-.667a1.115,1.115,0,0,1,.6-.12,1.391,1.391,0,0,1,.641.172l.667.386a.521.521,0,0,1,.3.37.349.349,0,0,1-.214.349.224.224,0,0,1-.151.031.344.344,0,0,1-.156-.047.136.136,0,0,1-.078-.089.079.079,0,0,1,.052-.089.2.2,0,0,0,.109-.172.266.266,0,0,0-.156-.188l-.662-.386a.7.7,0,0,0-.323-.083.573.573,0,0,0-.3.057l-.37.214A1.372,1.372,0,0,1,103.339,385.879Zm-1.2.307a.172.172,0,0,0-.1.172.261.261,0,0,0,.151.188l.667.386a.7.7,0,0,0,.318.089.521.521,0,0,0,.3-.063l.292-.167a.172.172,0,0,0,.1-.172.266.266,0,0,0-.156-.188l-.662-.386a.709.709,0,0,0-.323-.089.521.521,0,0,0-.3.063Z" transform="translate(-70.337 -359.749)" fill="#fff"/>
        <path id="Path_3948" data-name="Path 3948" d="M110.131,389.457l-1.975.276h-.313a.188.188,0,0,1-.083-.089.126.126,0,0,1,.063-.094.713.713,0,0,1,.229-.031c.631-.089,1.24-.182,1.829-.276a.52.52,0,0,0,.172-.047l.141-.052.047-.026a.172.172,0,0,0,.1-.177.25.25,0,0,0-.151-.182l-.334-.193-.162-.094-.667-.386a.136.136,0,0,1-.078-.094.083.083,0,0,1,.052-.083.24.24,0,0,1,.151-.031.324.324,0,0,1,.162.042l.667.386.167.094.334.193a.521.521,0,0,1,.3.37.344.344,0,0,1-.208.349,1.764,1.764,0,0,1-.235.1,1.186,1.186,0,0,1-.208.047Z" transform="translate(-73.288 -361.029)" fill="#fff"/>
        <path id="Path_3949" data-name="Path 3949" d="M114.165,392.976l-.146.083a1.043,1.043,0,0,1-.6.125,1.334,1.334,0,0,1-.641-.177l-.667-.38a.521.521,0,0,1-.3-.37.354.354,0,0,1,.214-.349l.146-.083a.947.947,0,0,1,.3-.1,1.371,1.371,0,0,1,.36,0,.323.323,0,0,1,0-.208.521.521,0,0,1,.182-.172l.141-.083a1.131,1.131,0,0,1,.6-.12,1.427,1.427,0,0,1,.641.172l.662.386a.521.521,0,0,1,.3.37.344.344,0,0,1-.208.349L115,392.5a.936.936,0,0,1-.3.1,1.369,1.369,0,0,1-.36,0,.292.292,0,0,1,0,.208A.433.433,0,0,1,114.165,392.976Zm.678-.771a.172.172,0,0,0,.1-.177.26.26,0,0,0-.151-.182l-.667-.386a.689.689,0,0,0-.318-.089.667.667,0,0,0-.3.063l-.141.083a.172.172,0,0,0-.109.177.276.276,0,0,0,.151.182l.667.386a.683.683,0,0,0,.318.083.594.594,0,0,0,.3-.057Zm-1.011.578a.162.162,0,0,0,.1-.172.25.25,0,0,0-.151-.182l-.662-.386a.709.709,0,0,0-.323-.089.522.522,0,0,0-.3.063l-.146.083a.172.172,0,0,0-.1.172.25.25,0,0,0,.151.188l.662.38a.652.652,0,0,0,.323.089.522.522,0,0,0,.3-.063Z" transform="translate(-75.226 -362.589)" fill="#fff"/>
        <path id="Path_3950" data-name="Path 3950" d="M123,398.893l-.667-.386a.521.521,0,0,1-.3-.365.344.344,0,0,1,.214-.349.313.313,0,0,1,.151-.031.344.344,0,0,1,.162.047.146.146,0,0,1,.073.089.089.089,0,0,1-.052.089.177.177,0,0,0-.109.172.271.271,0,0,0,.151.188l.667.38a.708.708,0,0,0,.323.089.6.6,0,0,0,.3-.057l.365-.214a1.324,1.324,0,0,1-.417-.151l-.662-.38a.521.521,0,0,1-.3-.37.349.349,0,0,1,.214-.349l.287-.167a1.131,1.131,0,0,1,.6-.12,1.386,1.386,0,0,1,.636.172l.667.386a.521.521,0,0,1,.3.37.344.344,0,0,1-.208.349l-1.157.662a1.042,1.042,0,0,1-.6.125A1.334,1.334,0,0,1,123,398.893Zm2.085-.8a.172.172,0,0,0,.1-.177.25.25,0,0,0-.151-.182l-.667-.386a.7.7,0,0,0-.318-.089.521.521,0,0,0-.3.063l-.287.167a.177.177,0,0,0-.109.172.271.271,0,0,0,.151.188l.667.38a.631.631,0,0,0,.318.089.563.563,0,0,0,.307-.057Z" transform="translate(-80.119 -365.399)" fill="#fff"/>
        <path id="Path_3951" data-name="Path 3951" d="M127.683,401.609l-1-.578a.135.135,0,0,1-.078-.094.078.078,0,0,1,.052-.083.235.235,0,0,1,.151-.031.324.324,0,0,1,.162.042l.334.193,1.438-.834a.182.182,0,0,0,.109-.172.266.266,0,0,0-.146-.182h0a.136.136,0,0,1-.078-.089.079.079,0,0,1,.052-.089.323.323,0,0,1,.151-.031.281.281,0,0,1,.162.047h0a.521.521,0,0,1,.3.365.349.349,0,0,1-.214.349l-1.438.834.328.193a.135.135,0,0,1,.078.089.089.089,0,0,1-.057.089.256.256,0,0,1-.146.031.39.39,0,0,1-.167-.047Z" transform="translate(-82.313 -366.671)" fill="#fff"/>
        <path id="Path_3952" data-name="Path 3952" d="M131.938,404.053l-.667-.38a.521.521,0,0,1-.3-.37.349.349,0,0,1,.214-.349l1.152-.667a1.131,1.131,0,0,1,.6-.12,1.386,1.386,0,0,1,.636.172l.667.386a.521.521,0,0,1,.3.37.349.349,0,0,1-.214.349l-1.152.662a1.084,1.084,0,0,1-.6.125A1.329,1.329,0,0,1,131.938,404.053Zm-.38-.547.667.386a.829.829,0,0,0,.193.068l.224-1.464-1.136.651a.177.177,0,0,0-.109.172.271.271,0,0,0,.162.188Zm2.4-.615-.667-.386a.7.7,0,0,0-.193-.068l-.224,1.464,1.126-.651a.177.177,0,0,0,.109-.177.276.276,0,0,0-.151-.182Z" transform="translate(-84.4 -367.87)" fill="#fff"/>
        <path id="Path_3953" data-name="Path 3953" d="M136.623,406.762l-1-.578a.141.141,0,0,1-.073-.094.078.078,0,0,1,.052-.083.235.235,0,0,1,.151-.031.323.323,0,0,1,.162.042l.334.193,1.438-.834a.177.177,0,0,0,.109-.172.276.276,0,0,0-.151-.182h0a.146.146,0,0,1-.073-.089.079.079,0,0,1,.052-.089.334.334,0,0,1,.313,0h0a.521.521,0,0,1,.3.365.344.344,0,0,1-.214.349l-1.444.834.334.193a.135.135,0,0,1,.078.094.094.094,0,0,1-.057.083.261.261,0,0,1-.151.031A.386.386,0,0,1,136.623,406.762Z" transform="translate(-86.594 -369.135)" fill="#fff"/>
        <path id="Path_3954" data-name="Path 3954" d="M145.563,411.924l-1-.578a.146.146,0,0,1-.073-.089.083.083,0,0,1,.052-.089.322.322,0,0,1,.151-.031.39.39,0,0,1,.162.042l.334.193,1.438-.834a.177.177,0,0,0,.109-.172.266.266,0,0,0-.146-.182h0c-.047-.031-.073-.057-.078-.094s0-.063.052-.089a.323.323,0,0,1,.151-.031.391.391,0,0,1,.162.047h0a.521.521,0,0,1,.3.37.349.349,0,0,1-.214.344l-1.444.834.334.193a.136.136,0,0,1,.078.094.094.094,0,0,1-.057.083.224.224,0,0,1-.151.031A.318.318,0,0,1,145.563,411.924Z" transform="translate(-90.875 -371.608)" fill="#fff"/>
        <path id="Path_3955" data-name="Path 3955" d="M150.454,413.854l-.662-.386a.71.71,0,0,0-.323-.089.521.521,0,0,0-.3.063l-.219.125a.042.042,0,0,0,0,.042.068.068,0,0,0,.036.047l1.418.818c.047,0,.073.057.073.094a.079.079,0,0,1-.052.089.313.313,0,0,1-.151.031.365.365,0,0,1-.156-.047l-1.668-.959a.125.125,0,0,1-.073-.094.079.079,0,0,1,.052-.089l.433-.25a1.115,1.115,0,0,1,.6-.12,1.391,1.391,0,0,1,.641.172l.667.386a.689.689,0,0,0,.318.089.521.521,0,0,0,.3-.062l.292-.167a.172.172,0,0,0,.1-.172.271.271,0,0,0-.151-.188l-.667-.386a.7.7,0,0,0-.318-.083.522.522,0,0,0-.3.063.281.281,0,0,1-.151,0,.323.323,0,0,1-.162-.042.141.141,0,0,1-.073-.094.078.078,0,0,1,.052-.083,1.073,1.073,0,0,1,.6-.125,1.328,1.328,0,0,1,.636.177l.667.38a.521.521,0,0,1,.3.37.339.339,0,0,1-.208.349l-.292.167a1.042,1.042,0,0,1-.6.125,1.433,1.433,0,0,1-.672-.151Z" transform="translate(-92.738 -372.787)" fill="#fff"/>
        <path id="Path_3956" data-name="Path 3956" d="M154.5,417.084l-1-.578a.146.146,0,0,1-.073-.089.083.083,0,0,1,.052-.089.324.324,0,0,1,.151-.031.392.392,0,0,1,.162.042l.334.193,1.438-.829a.172.172,0,0,0,.1-.172.25.25,0,0,0-.146-.188h0a.141.141,0,0,1-.073-.094c0-.036,0-.062.052-.083a.271.271,0,0,1,.151-.036.417.417,0,0,1,.162.047h0a.521.521,0,0,1,.3.37.344.344,0,0,1-.214.344l-1.444.834.334.193a.136.136,0,0,1,.078.094.094.094,0,0,1-.057.083.224.224,0,0,1-.151.031A.318.318,0,0,1,154.5,417.084Z" transform="translate(-95.155 -374.079)" fill="#fff"/>
        <path id="Path_3957" data-name="Path 3957" d="M160.139,419.507l-.141.083a1.131,1.131,0,0,1-.6.12,1.386,1.386,0,0,1-.636-.172l-.667-.386a.521.521,0,0,1-.3-.37.349.349,0,0,1,.214-.349.255.255,0,0,1,.146-.026.323.323,0,0,1,.162.042.136.136,0,0,1,.078.094.094.094,0,0,1-.052.083.172.172,0,0,0-.109.177.261.261,0,0,0,.151.182l.667.386a.688.688,0,0,0,.318.089.521.521,0,0,0,.3-.062l.146-.083a.172.172,0,0,0,.1-.177.261.261,0,0,0-.151-.182l-.167-.094a.156.156,0,0,1-.078-.094.1.1,0,0,1,.057-.089.3.3,0,0,1,.146-.031.392.392,0,0,1,.162.047l.167.094a.709.709,0,0,0,.323.089.552.552,0,0,0,.3-.062l.141-.083a.182.182,0,0,0,.109-.172.281.281,0,0,0-.151-.188l-.667-.38a.651.651,0,0,0-.323-.089.521.521,0,0,0-.3.063.34.34,0,0,1-.151.031.39.39,0,0,1-.162-.047.135.135,0,0,1-.078-.094.094.094,0,0,1,.057-.083,1.043,1.043,0,0,1,.6-.125,1.334,1.334,0,0,1,.641.177l.667.38a.521.521,0,0,1,.3.37.349.349,0,0,1-.214.349l-.146.083a.949.949,0,0,1-.3.1,2.034,2.034,0,0,1-.36,0,.307.307,0,0,1,0,.2A.459.459,0,0,1,160.139,419.507Z" transform="translate(-97.243 -375.282)" fill="#fff"/>
        <path id="Path_3958" data-name="Path 3958" d="M140.835,419.979l-.584-.339s-.042-.031-.042-.052v-.052a.225.225,0,0,1,.089,0,.183.183,0,0,1,.094.026l.2.109.839-.485a.1.1,0,0,0,.063-.1.167.167,0,0,0-.083-.109h0a.1.1,0,0,1-.047-.057.057.057,0,0,1,.031-.047.162.162,0,0,1,.089,0,.249.249,0,0,1,.094.026h0a.307.307,0,0,1,.177.219.208.208,0,0,1-.125.2l-.839.485.193.109a.1.1,0,0,1,.047.057.047.047,0,0,1-.036.047.141.141,0,0,1-.083,0,.25.25,0,0,1-.073-.042Z" transform="translate(-88.826 -375.869)" fill="#fff"/>
        <path id="Path_3959" data-name="Path 3959" d="M143.669,421.1l-.386-.224a.438.438,0,0,0-.188-.052.359.359,0,0,0-.177.036l-.125.073a.026.026,0,0,0,0,.026.037.037,0,0,0,0,.026l.829.479c.026,0,.042.031.042.052a.047.047,0,0,1-.031.052.12.12,0,0,1-.089,0,.177.177,0,0,1-.089,0l-.975-.558a.073.073,0,0,1-.042-.057.042.042,0,0,1,.026-.047l.255-.146a.609.609,0,0,1,.349-.073.787.787,0,0,1,.375.1l.391.224a.36.36,0,0,0,.188.052.256.256,0,0,0,.172-.036l.172-.094a.1.1,0,0,0,.063-.1c0-.042-.036-.073-.094-.109l-.386-.224a.416.416,0,0,0-.188-.047.271.271,0,0,0-.177.036.207.207,0,0,1-.089,0,.177.177,0,0,1-.089-.026.089.089,0,0,1-.047-.052.063.063,0,0,1,.031-.052.662.662,0,0,1,.354-.073.767.767,0,0,1,.37.1l.391.224a.307.307,0,0,1,.177.214.2.2,0,0,1-.125.2l-.167.1a.672.672,0,0,1-.354.073A.807.807,0,0,1,143.669,421.1Z" transform="translate(-89.893 -376.544)" fill="#fff"/>
        <path id="Path_3960" data-name="Path 3960" d="M148.148,423.69l-.391-.224a.36.36,0,0,0-.188-.047.3.3,0,0,0-.172.031l-.13.073v.026a.041.041,0,0,0,.026,0l.823.479a.089.089,0,0,1,.047.052.057.057,0,0,1-.031.052.161.161,0,0,1-.089,0,.251.251,0,0,1-.094-.026l-.99-.516c-.026,0-.042-.031-.042-.052a.042.042,0,0,1,.031-.052l.25-.146a.673.673,0,0,1,.354-.073.766.766,0,0,1,.37.1l.391.224a.417.417,0,0,0,.188.052.36.36,0,0,0,.177-.037l.167-.1c.047,0,.068-.057.063-.1a.162.162,0,0,0-.089-.109l-.391-.224a.418.418,0,0,0-.188-.052.3.3,0,0,0-.172.036.161.161,0,0,1-.089,0,.25.25,0,0,1-.094,0,.1.1,0,0,1-.047-.057.063.063,0,0,1,.031-.052.631.631,0,0,1,.354-.068.8.8,0,0,1,.375.1l.386.224a.307.307,0,0,1,.177.219.208.208,0,0,1-.125.2l-.167.094a.609.609,0,0,1-.349.073A.77.77,0,0,1,148.148,423.69Z" transform="translate(-92.037 -377.792)" fill="#fff"/>
        <path id="Path_3961" data-name="Path 3961" d="M151.58,425.672l-.083.047a.61.61,0,0,1-.349.073.808.808,0,0,1-.375-.1l-.386-.224a.292.292,0,0,1-.177-.214.2.2,0,0,1,.125-.2.136.136,0,0,1,.083,0,.177.177,0,0,1,.094,0,.1.1,0,0,1,.047.057.062.062,0,0,1-.031.052c-.047.026-.068.057-.063.1a.162.162,0,0,0,.089.109l.386.224a.458.458,0,0,0,.188.052.359.359,0,0,0,.177-.036l.083-.052c.047,0,.068-.057.063-.1a.162.162,0,0,0-.089-.109l-.1-.057s-.042-.031-.042-.052a.047.047,0,0,1,.031-.052.208.208,0,0,1,.089,0,.192.192,0,0,1,.094,0l.094.057a.386.386,0,0,0,.188.047.271.271,0,0,0,.177-.036l.083-.047a.1.1,0,0,0,.063-.1.162.162,0,0,0-.089-.109l-.386-.224a.46.46,0,0,0-.188-.052.36.36,0,0,0-.177.037.126.126,0,0,1-.089,0,.25.25,0,0,1-.094,0,.073.073,0,0,1-.042-.057.061.061,0,0,1,.031-.052.657.657,0,0,1,.349-.068.8.8,0,0,1,.375.1l.386.224a.307.307,0,0,1,.177.219.208.208,0,0,1-.125.2l-.083.047a.52.52,0,0,1-.172.057.729.729,0,0,1-.214,0,.177.177,0,0,1,0,.125A.24.24,0,0,1,151.58,425.672Z" transform="translate(-93.613 -378.602)" fill="#fff"/>
        <path id="Path_3962" data-name="Path 3962" d="M145.047,422.832h0a.068.068,0,0,1,.036-.083l1.689-.7a.065.065,0,0,1,.052.12l-1.689.7a.068.068,0,0,1-.089-.036Z" transform="translate(-91.14 -377.388)" fill="#fff"/>
        <path id="Path_3963" data-name="Path 3963" d="M170.614,403.921l-5.649,3.262a1.689,1.689,0,0,1-1.532,0l-6.895-3.93a.464.464,0,0,1,0-.881l5.649-3.262a1.689,1.689,0,0,1,1.532,0c1.866,1.079,5.024,2.846,6.89,3.93a.464.464,0,0,1,.005.881Z" transform="translate(-96.492 -366.321)" fill="#0e3958"/>
        <g id="Group_9204" data-name="Group 9204" transform="translate(59.728 32.607)" clip-path="url(#clip-path)">
          <path id="Path_3964" data-name="Path 3964" d="M170.614,403.921l-5.649,3.262a1.689,1.689,0,0,1-1.532,0l-6.895-3.93a.464.464,0,0,1,0-.881l5.649-3.262a1.689,1.689,0,0,1,1.532,0c1.866,1.079,5.024,2.846,6.89,3.93a.464.464,0,0,1,.005.881Z" transform="translate(-156.219 -398.927)" fill="#fff" opacity="0.8"/>
          <path id="Path_3965" data-name="Path 3965" d="M173.059,405.7l.516-.1-11.294-6.468-.521.1Z" transform="translate(-158.872 -399.024)" fill="#0e3958"/>
          <path id="Path_3966" data-name="Path 3966" d="M169.65,408.432l.521.1,2.877-1.662-.521-.1Z" transform="translate(-162.65 -402.683)" fill="#0e3958"/>
          <path id="Path_3967" data-name="Path 3967" d="M164.49,405.577l.521.1,2.872-1.657-.516-.1Z" transform="translate(-160.18 -401.318)" fill="#0e3958"/>
          <path id="Path_3968" data-name="Path 3968" d="M167.524,408.892l.521-.1-11.294-6.473-.521.1Z" transform="translate(-156.224 -400.552)" fill="#0e3958"/>
        </g>
        <path id="Path_3970" data-name="Path 3970" d="M87.909,392.651,60.923,377.073a1.876,1.876,0,0,0-1.7,0l-.12.068a.521.521,0,0,0,0,.98L86.1,393.7a1.876,1.876,0,0,0,1.7,0l.115-.068a.521.521,0,0,0,0-.985Z" transform="translate(-49.825 -355.759)" fill="#455a64"/>
        <path id="Path_3971" data-name="Path 3971" d="M107.361,347.61a.413.413,0,0,1,.156,0,.323.323,0,0,1,.136.036l.422.245c.042.026.063.052.063.083s0,.063-.063.083a2.306,2.306,0,0,1-.521.188,2.759,2.759,0,0,1-.672.063,3.409,3.409,0,0,1-.761-.115,3.219,3.219,0,0,1-.808-.339,1.84,1.84,0,0,1-.521-.433.735.735,0,0,1-.172-.448.714.714,0,0,1,.156-.438,1.854,1.854,0,0,1,.453-.412l.433-.261.453-.25a3.077,3.077,0,0,1,.714-.261,3.126,3.126,0,0,1,.761-.094,3.265,3.265,0,0,1,.771.1,2.938,2.938,0,0,1,.75.313,2.085,2.085,0,0,1,.589.464.839.839,0,0,1,.193.443.584.584,0,0,1-.109.386,1.3,1.3,0,0,1-.318.313.261.261,0,0,1-.141.036.4.4,0,0,1-.146-.036l-.427-.25a.109.109,0,0,1-.063-.073.135.135,0,0,1,.047-.094.484.484,0,0,0,.13-.162.349.349,0,0,0,0-.193.521.521,0,0,0-.125-.224,1.209,1.209,0,0,0-.307-.234,1.453,1.453,0,0,0-.422-.167,1.674,1.674,0,0,0-.422-.052,1.818,1.818,0,0,0-.412.052,1.7,1.7,0,0,0-.375.146l-.453.245-.427.261a1.186,1.186,0,0,0-.25.219.4.4,0,0,0-.089.235.375.375,0,0,0,.083.245.917.917,0,0,0,.3.245,1.722,1.722,0,0,0,.406.177,1.8,1.8,0,0,0,.38.073,1.487,1.487,0,0,0,.344,0A1.042,1.042,0,0,0,107.361,347.61Z" transform="translate(-71.784 -340.623)" fill="#0e3958"/>
        <path id="Path_3972" data-name="Path 3972" d="M115.409,349.378c.438.255.672.521.693.756s-.141.474-.521.683a2.162,2.162,0,0,1-.834.276,2.4,2.4,0,0,1-.917-.068l-.573,1.173-.042.042a.27.27,0,0,1-.12.026.265.265,0,0,1-.115-.026l-.448-.261c-.068-.036-.1-.078-.1-.115a.188.188,0,0,1,0-.1l.521-1.1-.7-.4-1.225.709a.313.313,0,0,1-.141.031.319.319,0,0,1-.146-.031l-.422-.245a.1.1,0,0,1-.057-.083.094.094,0,0,1,.057-.083l3.393-1.96a.265.265,0,0,1,.146-.036.245.245,0,0,1,.141.036Zm-2.444.521.761.443a1.662,1.662,0,0,0,.584.214.907.907,0,0,0,.578-.125c.2-.115.271-.224.219-.334a.954.954,0,0,0-.38-.334l-.761-.438Z" transform="translate(-74.485 -342.203)" fill="#0e3958"/>
        <path id="Path_3973" data-name="Path 3973" d="M120.153,355.581a.083.083,0,0,1,0,.162l-.375.219a.334.334,0,0,1-.281,0l-2.309-1.334a.094.094,0,0,1-.057-.083.1.1,0,0,1,.057-.083l3.4-1.96a.281.281,0,0,1,.141-.031.3.3,0,0,1,.141.031l2.267,1.308a.1.1,0,0,1,.057.083.11.11,0,0,1-.057.083l-.375.214a.334.334,0,0,1-.281,0l-1.7-.98-.839.479,1.563.917a.094.094,0,0,1,.057.083.083.083,0,0,1-.057.078l-.37.219a.318.318,0,0,1-.146.031.282.282,0,0,1-.141-.031l-1.563-.917-.87.521Z" transform="translate(-77.774 -344.075)" fill="#0e3958"/>
        <path id="Path_3974" data-name="Path 3974" d="M128.365,356.842a2.086,2.086,0,0,1,.573.453.745.745,0,0,1,.188.443.677.677,0,0,1-.167.433,1.819,1.819,0,0,1-.474.417c-.245.161-.521.307-.777.453a3.606,3.606,0,0,1-.724.271,2.829,2.829,0,0,1-.75.1,2.97,2.97,0,0,1-.761-.1,3.211,3.211,0,0,1-.766-.323l-1.324-.766a.083.083,0,0,1,0-.162l3.4-1.965a.3.3,0,0,1,.141-.031.318.318,0,0,1,.146.031Zm-.589,1.339a1.042,1.042,0,0,0,.245-.219.4.4,0,0,0,.089-.24.417.417,0,0,0-.1-.255,1.173,1.173,0,0,0-.334-.261l-.7-.407-2.366,1.366.73.422a1.736,1.736,0,0,0,.865.24,1.82,1.82,0,0,0,.412-.052,1.746,1.746,0,0,0,.38-.146,8.085,8.085,0,0,0,.792-.448Z" transform="translate(-80.738 -345.794)" fill="#0e3958"/>
        <path id="Path_3975" data-name="Path 3975" d="M130.517,362.317a.083.083,0,0,1-.057-.078.089.089,0,0,1,.057-.083l3.393-1.96a.266.266,0,0,1,.146-.036.245.245,0,0,1,.141.036l.427.245a.083.083,0,0,1,0,.161l-3.4,1.965a.313.313,0,0,1-.141.031.318.318,0,0,1-.146-.031Z" transform="translate(-84.157 -347.757)" fill="#0e3958"/>
        <path id="Path_3976" data-name="Path 3976" d="M140.169,363.091a.094.094,0,0,1,.057.083q0,.047-.063.078l-.37.219a.314.314,0,0,1-.141.031.318.318,0,0,1-.146-.031l-.943-.521-2.882,1.663a.369.369,0,0,1-.141.036.4.4,0,0,1-.146-.036l-.422-.245a.11.11,0,0,1-.063-.083.1.1,0,0,1,.063-.078l2.882-1.668-.949-.547a.083.083,0,0,1-.057-.078.089.089,0,0,1,.057-.083l.375-.219a.282.282,0,0,1,.141-.031.3.3,0,0,1,.141.031Z" transform="translate(-86.288 -348.437)" fill="#0e3958"/>
        <path id="Path_3977" data-name="Path 3977" d="M145.321,369.506a.328.328,0,0,1,.156-.026.3.3,0,0,1,.13.036l.427.245a.094.094,0,0,1,.063.083q0,.047-.063.078a2.31,2.31,0,0,1-.521.188,2.757,2.757,0,0,1-.672.063,3.392,3.392,0,0,1-.761-.109,3.059,3.059,0,0,1-.808-.344,1.687,1.687,0,0,1-.521-.432.719.719,0,0,1-.172-.443.688.688,0,0,1,.156-.443,1.861,1.861,0,0,1,.453-.412l.433-.261c.162-.094.313-.172.453-.245a3.247,3.247,0,0,1,.714-.266,2.893,2.893,0,0,1,.761-.089,3.015,3.015,0,0,1,.771.1,2.747,2.747,0,0,1,.75.308,2,2,0,0,1,.589.469.808.808,0,0,1,.193.438.589.589,0,0,1-.109.391,1.194,1.194,0,0,1-.318.307.229.229,0,0,1-.146.036.312.312,0,0,1-.141-.036l-.427-.245a.13.13,0,0,1-.063-.078.1.1,0,0,1,.042-.094.474.474,0,0,0,.136-.156.365.365,0,0,0,0-.2.522.522,0,0,0-.125-.219,1.211,1.211,0,0,0-.307-.235,1.638,1.638,0,0,0-.422-.172,1.7,1.7,0,0,0-.422-.047,1.564,1.564,0,0,0-.412.052,2,2,0,0,0-.375.141l-.453.25-.427.261a.952.952,0,0,0-.25.219.448.448,0,0,0-.094.234.443.443,0,0,0,.089.245.991.991,0,0,0,.3.245,1.965,1.965,0,0,0,.407.177,2.209,2.209,0,0,0,.38.073,1.847,1.847,0,0,0,.344,0A1.04,1.04,0,0,0,145.321,369.506Z" transform="translate(-89.961 -351.095)" fill="#0e3958"/>
        <path id="Path_3978" data-name="Path 3978" d="M153.27,371.891c.052.031.083.068.078.1a.208.208,0,0,1-.057.12l-2.038,2.663h-.031a.334.334,0,0,1-.281,0l-.38-.219c-.068-.042-.1-.078-.1-.109a.224.224,0,0,1,.031-.089l.354-.464-1.663-.959-.808.2a.569.569,0,0,1-.146,0,.339.339,0,0,1-.193-.057l-.375-.219a.089.089,0,0,1-.057-.083.094.094,0,0,1,.057-.078h.042l4.612-1.173a.876.876,0,0,1,.208-.036.354.354,0,0,1,.172.047Zm-2.022,1.5.922-1.2-2.085.521Z" transform="translate(-92.364 -353.183)" fill="#0e3958"/>
        <path id="Path_3979" data-name="Path 3979" d="M160.409,375.358c.438.25.667.521.693.75s-.146.479-.521.688a2.188,2.188,0,0,1-.834.276,2.4,2.4,0,0,1-.917-.068l-.573,1.167a.1.1,0,0,1-.042.042.214.214,0,0,1-.12.031.208.208,0,0,1-.115-.031l-.443-.255c-.073-.042-.109-.083-.109-.12a.25.25,0,0,1,0-.094l.521-1.1-.7-.4-1.225.7a.245.245,0,0,1-.141.037.234.234,0,0,1-.141-.036l-.427-.245a.089.089,0,0,1-.057-.083.083.083,0,0,1,.057-.078l3.455-1.965a.333.333,0,0,1,.281,0Zm-2.449.521.761.438a1.777,1.777,0,0,0,.589.219.87.87,0,0,0,.573-.13q.3-.172.219-.328a.886.886,0,0,0-.38-.334l-.761-.443Z" transform="translate(-96.032 -354.643)" fill="#0e3958"/>
        <path id="Path_3980" data-name="Path 3980" d="M167.264,379.281a2.028,2.028,0,0,1,.573.448.7.7,0,0,1,.188.443.724.724,0,0,1-.162.438,2.053,2.053,0,0,1-.479.417c-.245.156-.521.307-.777.448a3.7,3.7,0,0,1-.724.276,3.011,3.011,0,0,1-.745.094,2.979,2.979,0,0,1-.766-.1,3.283,3.283,0,0,1-.761-.318l-1.324-.766a.1.1,0,0,1-.057-.083.094.094,0,0,1,.057-.083l3.393-1.96a.26.26,0,0,1,.146-.031.245.245,0,0,1,.141.031Zm-.589,1.334a1.045,1.045,0,0,0,.25-.219.4.4,0,0,0,.089-.24.427.427,0,0,0-.1-.255,1.12,1.12,0,0,0-.328-.255l-.7-.406-2.366,1.365.73.422a1.609,1.609,0,0,0,.433.177,1.565,1.565,0,0,0,.433.057,1.6,1.6,0,0,0,.412-.052,1.858,1.858,0,0,0,.38-.146,5.89,5.89,0,0,0,.777-.427Z" transform="translate(-99.37 -356.539)" fill="#0e3958"/>
      </g>
    </g>
    <g id="freepik--Character--inject-42" transform="translate(190.075 57.33)">
      <g id="freepik--character--inject-42-2" data-name="freepik--character--inject-42" transform="translate(0 0)">
        <path id="Path_3981" data-name="Path 3981" d="M372.731,117.021c-1.517,3.262-4.112,8.662-5.535,11.653l-5.566-6.556h-4.69s5.629,11.987,8.985,14.791a2.648,2.648,0,0,0,3.841-.229,49.5,49.5,0,0,0,3.768-5.212c2.658-4.107,3.846-5.879,3.846-5.879l3.346-14.071C377.818,111.3,374.837,112.492,372.731,117.021Z" transform="translate(-355.427 -88.532)" fill="#ffa8a7"/>
        <path id="Path_3982" data-name="Path 3982" d="M392.541,111.462c-1.788-.068-3.732-.292-5.436,1.2a13.862,13.862,0,0,0-3.721,5.212c-1.152,2.71-2.934,6.145-2.934,6.145a14.983,14.983,0,0,0,3.335,3.481,8.448,8.448,0,0,0,4.008,1.683Z" transform="translate(-366.684 -88.492)" fill="#0e3958"/>
        <path id="Path_3983" data-name="Path 3983" d="M392.541,111.462c-1.788-.068-3.732-.292-5.436,1.2a13.862,13.862,0,0,0-3.721,5.212c-1.152,2.71-2.934,6.145-2.934,6.145a14.983,14.983,0,0,0,3.335,3.481,8.448,8.448,0,0,0,4.008,1.683Z" transform="translate(-366.684 -88.492)" opacity="0.45"/>
        <path id="Path_3984" data-name="Path 3984" d="M376.62,143.881a19.9,19.9,0,0,1,1.715,2.335,8.388,8.388,0,0,0-1.412-2.965Z" transform="translate(-364.85 -103.739)" fill="#f28f8f"/>
        <path id="Path_3985" data-name="Path 3985" d="M354.17,114.63h0l.443-.464h0a.558.558,0,0,1,.5-.1l5.389.917a1.934,1.934,0,0,1,1.287.985l4.847,10.533a.521.521,0,0,1,0,.568h0l-.459.479h0a.552.552,0,0,1-.521.1l-5.368-.912a1.939,1.939,0,0,1-1.287-.99l-4.847-10.533C354.03,114.954,354.03,114.745,354.17,114.63Z" transform="translate(-354.049 -89.753)" fill="#455a64"/>
        <path id="Path_3986" data-name="Path 3986" d="M366.161,127.417l-4.847-10.538a1.944,1.944,0,0,0-1.287-.985l-5.389-.907c-.521-.083-.73.219-.521.683l4.847,10.533a1.939,1.939,0,0,0,1.287.99l5.389.912C366.14,128.183,366.374,127.876,366.161,127.417Z" transform="translate(-354.037 -90.199)" fill="#263238"/>
        <path id="Path_3987" data-name="Path 3987" d="M366.69,116.822a1.907,1.907,0,0,1,.688.745l4.847,10.527a.521.521,0,0,1,0,.552l.433-.448h0a.521.521,0,0,0,0-.563L367.81,117.1a1.8,1.8,0,0,0-.636-.7Z" transform="translate(-360.096 -90.882)" fill="#37474f"/>
        <path id="Path_3988" data-name="Path 3988" d="M357.482,129.012c-2.231-2.559-2.168-5.764-1.141-6.692l.678,1.48a24.891,24.891,0,0,0,5.055.636c1.642-.125,2.981-.521,3.429-.2.954.672,1.23,3.528-1.5,4.571C361.682,129.689,357.482,129.012,357.482,129.012Z" transform="translate(-354.812 -93.717)" fill="#ffa8a7"/>
        <g id="freepik--Botom--inject-42" transform="translate(8.853 46.563)">
          <path id="Path_3989" data-name="Path 3989" d="M429.243,287.929a5.662,5.662,0,0,1-4.909,0l-.714-9.339,5.623.735Z" transform="translate(-396.208 -215.107)" fill="#ffa8a7"/>
          <path id="Path_3990" data-name="Path 3990" d="M395.929,277.382c-1.214,2.632-3.414,1.9-5.889.219l.438-9.381h5.967Z" transform="translate(-380.129 -210.142)" fill="#ffa8a7"/>
          <path id="Path_3991" data-name="Path 3991" d="M414.142,306.489a2.142,2.142,0,0,0,.063,1.444,4.529,4.529,0,0,0,3.21,1.35,7.805,7.805,0,0,0,4.612-.808,3.228,3.228,0,0,0,1.725-2.517,6.941,6.941,0,0,1,.49-2.9c.49-.818,1.209-1.6,1.371-2.006a4.107,4.107,0,0,0,0-2.158Z" transform="translate(-391.624 -224.828)" fill="#263238"/>
          <path id="Path_3992" data-name="Path 3992" d="M419.267,293.775a5.166,5.166,0,0,1-.224,1.178,11.015,11.015,0,0,1-1.141,2.335,10.655,10.655,0,0,1-.777,1.094c-.563.667-1.261,1.214-1.855,1.861a3.778,3.778,0,0,0-1.152,2.283c-.078,1.459,1.506,1.954,2.726,2.173a9,9,0,0,0,3.961-.2,3.648,3.648,0,0,0,2.668-2.908c.068-.407.042-.823.094-1.23a5.78,5.78,0,0,1,1.131-2.554,7.441,7.441,0,0,0,.87-1.386,4.372,4.372,0,0,0-.167-2.82c-.208-.777-.448-1.657-.719-1.563a.964.964,0,0,1-.068.469,2.082,2.082,0,0,0-.214.459,3.587,3.587,0,0,1-.219.6,1.563,1.563,0,0,1-.651.714c0-.521-.036-1.1-.052-1.652a.772.772,0,0,0-.125-.485.788.788,0,0,0-.469-.2,10.191,10.191,0,0,0-3.127-.255.522.522,0,0,0-.417.182.6.6,0,0,0-.073.37,14.1,14.1,0,0,1,0,1.537Z" transform="translate(-391.657 -221.364)" fill="#37474f"/>
          <path id="Path_3993" data-name="Path 3993" d="M420.981,301.936a4.14,4.14,0,0,1,2.429-.339,4.05,4.05,0,0,1,1.892.662.433.433,0,0,0,.558-.042h0a.412.412,0,0,0-.042-.62,4.106,4.106,0,0,0-2.132-.792,4.24,4.24,0,0,0-2.116.167S420.83,301.472,420.981,301.936Z" transform="translate(-394.935 -225.731)" fill="#f5f5f5"/>
          <path id="Path_3994" data-name="Path 3994" d="M418.62,304.887a5.331,5.331,0,0,1,2.689-.276,3.83,3.83,0,0,1,1.84.7.427.427,0,0,0,.558-.047h0a.4.4,0,0,0-.042-.62,4.268,4.268,0,0,0-2.173-.849c-1.636-.115-2.085.219-2.085.219A1.355,1.355,0,0,0,418.62,304.887Z" transform="translate(-393.814 -227.166)" fill="#f5f5f5"/>
          <path id="Path_3995" data-name="Path 3995" d="M425.232,297.812a3.987,3.987,0,0,0-2.059.172c-.287.162-.479.615-.292.73a3.824,3.824,0,0,1,1.824-.25,5.445,5.445,0,0,1,1.772.49c.141.063.307.146.453.229a.386.386,0,0,0,.521-.167h0a.36.36,0,0,0-.141-.469A5.238,5.238,0,0,0,425.232,297.812Z" transform="translate(-395.819 -224.281)" fill="#f5f5f5"/>
          <path id="Path_3996" data-name="Path 3996" d="M371.2,294.342a1.767,1.767,0,0,0,.073,1.3c.182.38,2.168,1.5,4.847,1.319a11.106,11.106,0,0,0,5.535-1.934,6.466,6.466,0,0,1,3.408-.881c1.324-.078,3.07-.735,3.356-1.355a2.934,2.934,0,0,0-.042-1.689Z" transform="translate(-371.064 -221.097)" fill="#263238"/>
          <path id="Path_3997" data-name="Path 3997" d="M381.919,281.1l-.693-.271a.558.558,0,0,0-.4-.042c-.172.063-.24.266-.287.443a6.657,6.657,0,0,1-.292,1.162,2.84,2.84,0,0,1-.751.787,12.209,12.209,0,0,1-2.142,1.381c-.876.469-1.73.834-2.637,1.24a21.508,21.508,0,0,0-2.861,1.157,1.938,1.938,0,0,0,0,3.19,9.463,9.463,0,0,0,6.6.453c1.564-.438,3.273-2.085,5.311-2.257,1.3-.1,3.747-.464,4.581-1.449.307-.438-.1-1.819-.438-3.012-.37-1.308-.521-3.346-.943-3.231-.031.433-.406.688-.636,1.042a8.058,8.058,0,0,0-.464,1.042,1.87,1.87,0,0,1-.677.891.86.86,0,0,1-1.042-.057c-.38-.4-.156-1.089-.433-1.564a1.61,1.61,0,0,0-.912-.6Z" transform="translate(-371.023 -216.094)" fill="#37474f"/>
          <path id="Path_3998" data-name="Path 3998" d="M385.5,286.235a1.214,1.214,0,0,1,.959-.641,3.467,3.467,0,0,1,2.277.86.48.48,0,0,1-.073.8h0a.479.479,0,0,1-.552-.063A3.7,3.7,0,0,0,385.5,286.235Z" transform="translate(-377.955 -218.453)" fill="#f5f5f5"/>
          <path id="Path_3999" data-name="Path 3999" d="M382,288.264a1.386,1.386,0,0,1,1.136-.584,4.331,4.331,0,0,1,2.491.933.469.469,0,0,1-.063.771h0a.454.454,0,0,1-.521-.057A3.705,3.705,0,0,0,382,288.264Z" transform="translate(-376.279 -219.46)" fill="#f5f5f5"/>
          <path id="Path_4000" data-name="Path 4000" d="M378.12,290.091a1.564,1.564,0,0,1,1.178-.521,4.128,4.128,0,0,1,2.387.943.469.469,0,0,1-.063.771h0a.464.464,0,0,1-.521-.063,3.554,3.554,0,0,0-2.981-1.131Z" transform="translate(-374.421 -220.365)" fill="#f5f5f5"/>
          <path id="Path_4001" data-name="Path 4001" d="M412.428,159.3c.333,10.22.307,34.918.307,34.918.109,1.272.625,3.883,1.042,8.969.552,6.624-.641,21.18-.641,21.18a6.775,6.775,0,0,1-5.337.031s-3.189-20.727-4.18-27.272c-.891-5.733-2.637-18.678-2.637-18.678l-2.017,16.8a34.32,34.32,0,0,1-.2,8.4c-.469,3.012-2.554,15.4-2.554,15.4a10.559,10.559,0,0,1-5.92-.224s-.193-21.456-.25-24.245c-.057-3.184,1.412-37.8,1.412-37.8Z" transform="translate(-380.128 -156.78)" fill="#37474f"/>
          <path id="Path_4002" data-name="Path 4002" d="M403.635,188.185l-1.511-8.375s-4.169-.365-6.5-2.7c0,0,.412,2.288,5.681,3.648l1.506,8.474-1.188,15.739Z" transform="translate(-382.801 -166.515)" fill="#263238"/>
        </g>
        <path id="Path_4003" data-name="Path 4003" d="M393.207,119.375c.448-3.273.881-7.672,5.952-7.875l6.546.313c1.61.422,7.875,1.162,7.875,1.162l.12,14.2s.4,10.236.276,15.713c-4.69,2.971-14.879,3.935-21.284-.928C392.5,137.438,392.759,122.616,393.207,119.375Z" transform="translate(-372.515 -88.536)" fill="#fafafa"/>
        <path id="Path_4004" data-name="Path 4004" d="M394.17,73.562a6.478,6.478,0,0,0,2.866,9.053l-1.178.813,11.768,1.042-.151,2.835a2.116,2.116,0,0,0,1.256-.949,53.245,53.245,0,0,0,1.563-5.394c1.1-2.533,1.647-5.139.855-6a2.21,2.21,0,0,0-1.173-.678l1.563-.787a1.256,1.256,0,0,0-1.7-.62,1.292,1.292,0,0,0-.354.266,3.291,3.291,0,0,0,.078-.521,2.314,2.314,0,0,0-.349-1.475,2.762,2.762,0,0,0-.829-.724,21.387,21.387,0,0,0-4.367-1.657c-.834-.3-1.642-.662-2.465-1a3.127,3.127,0,0,0-1.73-.313,1.147,1.147,0,0,0-.943,1.319,2.22,2.22,0,0,0-2.429-.37,1.933,1.933,0,0,0-1.188,1.918,2.392,2.392,0,0,0-1.595.156,1.376,1.376,0,0,0-.777,1.324,3.164,3.164,0,0,0,1.282,1.762Z" transform="translate(-372.639 -67.436)" fill="#37474f"/>
        <path id="Path_4005" data-name="Path 4005" d="M404.038,81.589c1.084-.13,2.158-.307,3.231-.474a.36.36,0,0,1,.287.036.292.292,0,0,1,.089.162c.709,2.085.688,4.3,1.251,6.4.052.193.172.521.4.521.417.047.7-.323.881-.646l.4-.724a1.889,1.889,0,0,1,.3-.37,1.622,1.622,0,0,1,2.689.552c.693,1.595-.792,3.742-1.991,4.075-2.085.578-2.34-.75-2.34-.75l-.4,7.4c-1.834,1.918-7.864,1.251-6.671-.417l.078-2.251a12.794,12.794,0,0,1-2.773.052,3.759,3.759,0,0,1-2.814-3.127c-.651-2.648-.578-5.884-.068-9.9a5.515,5.515,0,0,1,.37-1.386C399.071,81.918,401.641,81.876,404.038,81.589Z" transform="translate(-374.221 -73.807)" fill="#ffa8a7"/>
        <path id="Path_4006" data-name="Path 4006" d="M407.786,105.85a25.772,25.772,0,0,0,4.591-1.157,3.877,3.877,0,0,0,1.678-1.563,5.347,5.347,0,0,1-.985,1.871c-.9,1.074-5.311,1.741-5.311,1.741Z" transform="translate(-379.761 -84.528)" fill="#f28f8f"/>
        <path id="Path_4007" data-name="Path 4007" d="M408.74,91.66a.724.724,0,1,0,.745-.73A.74.74,0,0,0,408.74,91.66Z" transform="translate(-380.231 -78.686)" fill="#263238"/>
        <path id="Path_4008" data-name="Path 4008" d="M410.67,86.069l1.517.651a.865.865,0,0,0-.443-1.11.808.808,0,0,0-1.074.459Z" transform="translate(-381.155 -76.108)" fill="#263238"/>
        <path id="Path_4009" data-name="Path 4009" d="M408.237,99.88l-2.377.808a1.23,1.23,0,0,0,1.563.829A1.313,1.313,0,0,0,408.237,99.88Z" transform="translate(-378.852 -82.971)" fill="#b16668"/>
        <path id="Path_4010" data-name="Path 4010" d="M408.257,102.074a1.277,1.277,0,0,0,.823-.907,1.042,1.042,0,0,0-1.49.933,1.167,1.167,0,0,0,.667-.026Z" transform="translate(-379.68 -83.539)" fill="#f28f8f"/>
        <path id="Path_4011" data-name="Path 4011" d="M397.138,86.71l1.511-.578a.782.782,0,0,0-1.042-.459A.829.829,0,0,0,397.138,86.71Z" transform="translate(-374.653 -76.139)" fill="#263238"/>
        <path id="Path_4012" data-name="Path 4012" d="M398.2,91.655a.73.73,0,1,0,.75-.735.745.745,0,0,0-.75.735Z" transform="translate(-375.184 -78.681)" fill="#263238"/>
        <path id="Path_4013" data-name="Path 4013" d="M402.85,91.869l-.109,4-2.231-.646,2.085-3.388A.6.6,0,0,1,402.85,91.869Z" transform="translate(-376.29 -79.119)" fill="#f28f8f"/>
        <path id="Path_4014" data-name="Path 4014" d="M391.942,123.383c.172-4.143.521-7.817,2.043-9.751s2.371-2.314,6.03-2.257v.25a1.355,1.355,0,0,0-1.042.6,21.575,21.575,0,0,0-2.814,6.254c-1.042,4.029-1.246,13.029-1.3,17.871s0,8.75,0,8.75-2.449-.573-3.205-1.8C391.65,143.3,391.765,127.531,391.942,123.383Z" transform="translate(-372.047 -88.473)" fill="#0e3958"/>
        <path id="Path_4015" data-name="Path 4015" d="M391.942,123.383c.172-4.143.521-7.817,2.043-9.751s2.371-2.314,6.03-2.257v.25a1.355,1.355,0,0,0-1.042.6,21.575,21.575,0,0,0-2.814,6.254c-1.042,4.029-1.246,13.029-1.3,17.871s0,8.75,0,8.75-2.449-.573-3.205-1.8C391.65,143.3,391.765,127.531,391.942,123.383Z" transform="translate(-372.047 -88.473)" opacity="0.35"/>
        <path id="Path_4016" data-name="Path 4016" d="M415.552,117.359a22.752,22.752,0,0,1,2.085-4.789l4.576.646c1.683.777,3.872,2.606,3.711,4.482l-1.2,13.581.334,12.862c-2.606,4.06-10.423,3.309-10.423,3.309s-.224-5.785.026-16.959C414.818,124.228,414.891,120.174,415.552,117.359Z" transform="translate(-383.009 -89.048)" fill="#0e3958"/>
        <path id="Path_4017" data-name="Path 4017" d="M415.552,117.359a22.752,22.752,0,0,1,2.085-4.789l4.576.646c1.683.777,3.872,2.606,3.711,4.482l-1.2,13.581.334,12.862c-2.606,4.06-10.423,3.309-10.423,3.309s-.224-5.785.026-16.959C414.818,124.228,414.891,120.174,415.552,117.359Z" transform="translate(-383.009 -89.048)" opacity="0.35"/>
        <path id="Path_4018" data-name="Path 4018" d="M416.07,117.1c.3-1.418.464-4.055.714-4.586s1.61-1.563,1.662-2.3v-.464a2.3,2.3,0,0,1,1.147.589c.427.38,1.689,1.261,1.689,1.261a5.764,5.764,0,0,1-.948,2.439c-.75,1.079-1.793,1.782-1.954,1.517s-.135-.672-.412-1.3c-.344-.787-.427-1.12-.792-.344C416.9,114.534,416.07,117.1,416.07,117.1Z" transform="translate(-383.741 -87.698)" fill="#37474f"/>
        <path id="Path_4019" data-name="Path 4019" d="M401.025,116.494c-.37,1.2.6-4.138,1.24-5.076a4.308,4.308,0,0,1,2.251-1.308l-.068,1.152a1.746,1.746,0,0,0-1.042.719A19.54,19.54,0,0,0,401.025,116.494Z" transform="translate(-376.497 -87.87)" fill="#37474f"/>
        <path id="Path_4020" data-name="Path 4020" d="M415.693,126a98.968,98.968,0,0,1,10.423,1.631l-.036.386a98.239,98.239,0,0,0-10.449-1.636A2.069,2.069,0,0,0,415.693,126Z" transform="translate(-383.53 -95.479)" fill="#0e3958"/>
        <path id="Path_4021" data-name="Path 4021" d="M392.792,125.563c1.141-.135,2.439-.255,3.862-.323l-.094.391c-1.407.068-2.689.188-3.81.323C392.76,125.824,392.776,125.688,392.792,125.563Z" transform="translate(-372.574 -95.115)" fill="#0e3958"/>
        <path id="Path_4022" data-name="Path 4022" d="M440.715,132.1c-4.888-12.414-5.957-16.276-9.407-17.72a9.277,9.277,0,0,0-2.84-.6c-.85,1.563-2.085,7.567,1.991,11.747,0,0,2.96,7.3,4.451,10.746-.047,3.471.2,6.363-.855,11.054a3.127,3.127,0,0,1-1.178,1.563c-1.24.683-1.449,1.454-2.366,2.335-.714.688-1.339.85-1.235,1.079a1.345,1.345,0,0,0,1.563.552,11.631,11.631,0,0,0,1.923-1.006,11.5,11.5,0,0,1-2.246,3.341c-1.788,1.986-2.22,3.419,1.35,3.56,2.236.089,4.649-1.746,6.165-6.2.3-.881.61-2.152.928-3.393.229-.521,1.866-8.891,2.21-11.466C441.627,134.512,441.512,134.121,440.715,132.1Z" transform="translate(-389.264 -89.627)" fill="#ffa8a7"/>
        <path id="Path_4023" data-name="Path 4023" d="M427.571,113.745a7.088,7.088,0,0,1,4.331.761c1.933,1.167,2.606,2.189,4.935,7.619s2.788,6.478,2.788,6.478-1.042,3.1-7.265,3.45l-2.788-6.358a12.8,12.8,0,0,1-2.528-6.442A14.458,14.458,0,0,1,427.571,113.745Z" transform="translate(-388.977 -89.577)" fill="#0e3958"/>
        <path id="Path_4024" data-name="Path 4024" d="M427.571,113.745a7.088,7.088,0,0,1,4.331.761c1.933,1.167,2.606,2.189,4.935,7.619s2.788,6.478,2.788,6.478-1.042,3.1-7.265,3.45l-2.788-6.358a12.8,12.8,0,0,1-2.528-6.442A14.458,14.458,0,0,1,427.571,113.745Z" transform="translate(-388.977 -89.577)" opacity="0.45"/>
      </g>
    </g>
  </g>
</svg>
